<?xml version="1.0" encoding="UTF-8" standalone="no"?>
<svg width="580px" height="386px" viewBox="0 0 580 386" version="1.1" xmlns="http://www.w3.org/2000/svg" xmlns:xlink="http://www.w3.org/1999/xlink" xmlns:sketch="http://www.bohemiancoding.com/sketch/ns">
    <!-- Generator: Sketch 3.3 (11970) - http://www.bohemiancoding.com/sketch -->
    <title>203</title>
    <desc>Created with Sketch.</desc>
    <defs></defs>
    <g id="Page-1" stroke="none" stroke-width="1" fill="none" fill-rule="evenodd" sketch:type="MSPage">
        <g id="203" sketch:type="MSLayerGroup" transform="translate(0.000000, -1.000000)">
            <path d="M0.06,0.996 L580,0.996 L580,387 L0.06,387 L0.06,0.996 Z" id="Fill-1" fill="#0077C0" sketch:type="MSShapeGroup"></path>
            <path d="M219.155,132.553 L283.083,132.553 L283.083,255.121 L219.155,255.121 L219.155,132.553 Z" id="Fill-3" fill="#5685B8" sketch:type="MSShapeGroup"></path>
            <path d="M226.75,208.82 L247.08,208.82 L247.08,217.974 L226.75,217.974 L226.75,208.82 Z" id="Fill-4" fill="#64BAD7" sketch:type="MSShapeGroup"></path>
            <path d="M226.75,141.92 L247.08,141.92 L247.08,151.077 L226.75,151.077 L226.75,141.92 Z" id="Fill-5" fill="#64BAD7" sketch:type="MSShapeGroup"></path>
            <path d="M226.75,158.651 L247.08,158.651 L247.08,167.807 L226.75,167.807 L226.75,158.651 Z" id="Fill-6" fill="#64BAD7" sketch:type="MSShapeGroup"></path>
            <path d="M226.75,174.787 L247.08,174.787 L247.08,183.943 L226.75,183.943 L226.75,174.787 Z" id="Fill-7" fill="#64BAD7" sketch:type="MSShapeGroup"></path>
            <path d="M226.75,192.669 L247.08,192.669 L247.08,201.826 L226.75,201.826 L226.75,192.669 Z" id="Fill-8" fill="#64BAD7" sketch:type="MSShapeGroup"></path>
            <path d="M257.054,208.82 L277.384,208.82 L277.384,217.974 L257.054,217.974 L257.054,208.82 Z" id="Fill-9" fill="#64BAD7" sketch:type="MSShapeGroup"></path>
            <path d="M257.054,141.92 L277.384,141.92 L277.384,151.077 L257.054,151.077 L257.054,141.92 Z" id="Fill-10" fill="#64BAD7" sketch:type="MSShapeGroup"></path>
            <path d="M257.054,158.651 L277.384,158.651 L277.384,167.807 L257.054,167.807 L257.054,158.651 Z" id="Fill-11" fill="#64BAD7" sketch:type="MSShapeGroup"></path>
            <path d="M257.054,174.787 L277.384,174.787 L277.384,183.943 L257.054,183.943 L257.054,174.787 Z" id="Fill-12" fill="#64BAD7" sketch:type="MSShapeGroup"></path>
            <path d="M257.054,192.669 L277.384,192.669 L277.384,201.826 L257.054,201.826 L257.054,192.669 Z" id="Fill-13" fill="#64BAD7" sketch:type="MSShapeGroup"></path>
            <path d="M454.21,309 L454.21,259.173 L395.178,259.173 L395.178,164.8 L321.348,164.8 L321.348,251.288 L292.552,251.288 L292.552,265.871 L233.492,265.871 L233.492,197.318 L159.663,197.318 L159.663,282.346 L135.19,282.346 L135.19,309 L96.803,309 L96.803,353.547 L209.02,353.547 L209.02,352.6 L221.171,352.6 L221.171,353.547 L491.126,353.547 L491.126,309 L454.21,309" id="Fill-14" fill="#5685B8" sketch:type="MSShapeGroup"></path>
            <path d="M463.363,293.969 L468.477,293.969 L468.477,302.229 L463.363,302.229 L463.363,293.969 Z" id="Fill-15" fill="#FFFFFF" sketch:type="MSShapeGroup"></path>
            <path d="M471.694,288.855 L476.808,288.855 L476.808,302.229 L471.694,302.229 L471.694,288.855 Z" id="Fill-16" fill="#FFFFFF" sketch:type="MSShapeGroup"></path>
            <path d="M479.648,283.67 L484.761,283.67 L484.761,302.229 L479.648,302.229 L479.648,283.67 Z" id="Fill-17" fill="#FFFFFF" sketch:type="MSShapeGroup"></path>
            <path d="M170.508,208.425 L190.837,208.425 L190.837,217.581 L170.508,217.581 L170.508,208.425 Z" id="Fill-18" fill="#64BAD7" sketch:type="MSShapeGroup"></path>
            <path d="M204.888,208.425 L225.218,208.425 L225.218,217.581 L204.888,217.581 L204.888,208.425 Z" id="Fill-19" fill="#64BAD7" sketch:type="MSShapeGroup"></path>
            <path d="M170.508,225.156 L190.837,225.156 L190.837,234.312 L170.508,234.312 L170.508,225.156 Z" id="Fill-20" fill="#64BAD7" sketch:type="MSShapeGroup"></path>
            <path d="M204.888,225.156 L225.218,225.156 L225.218,234.312 L204.888,234.312 L204.888,225.156 Z" id="Fill-21" fill="#64BAD7" sketch:type="MSShapeGroup"></path>
            <path d="M170.508,241.291 L190.837,241.291 L190.837,250.448 L170.508,250.448 L170.508,241.291 Z" id="Fill-22" fill="#64BAD7" sketch:type="MSShapeGroup"></path>
            <path d="M204.888,241.291 L225.218,241.291 L225.218,250.448 L204.888,250.448 L204.888,241.291 Z" id="Fill-23" fill="#64BAD7" sketch:type="MSShapeGroup"></path>
            <path d="M170.508,259.173 L190.837,259.173 L190.837,268.329 L170.508,268.329 L170.508,259.173 Z" id="Fill-24" fill="#64BAD7" sketch:type="MSShapeGroup"></path>
            <path d="M204.888,259.173 L225.218,259.173 L225.218,268.329 L204.888,268.329 L204.888,259.173 Z" id="Fill-25" fill="#64BAD7" sketch:type="MSShapeGroup"></path>
            <path d="M106.817,319.419 L127.147,319.419 L127.147,328.576 L106.817,328.576 L106.817,319.419 Z" id="Fill-26" fill="#64BAD7" sketch:type="MSShapeGroup"></path>
            <path d="M140.797,305.432 L170.508,305.432 L170.508,341.466 L140.797,341.466 L140.797,305.432 Z" id="Fill-27" fill="#64BAD7" sketch:type="MSShapeGroup"></path>
            <path d="M416.947,336.262 L437.277,336.262 L437.277,345.419 L416.947,345.419 L416.947,336.262 Z" id="Fill-28" fill="#64BAD7" sketch:type="MSShapeGroup"></path>
            <path d="M416.947,269.366 L437.277,269.366 L437.277,278.52 L416.947,278.52 L416.947,269.366 Z" id="Fill-29" fill="#64BAD7" sketch:type="MSShapeGroup"></path>
            <path d="M416.947,286.096 L437.277,286.096 L437.277,295.252 L416.947,295.252 L416.947,286.096 Z" id="Fill-30" fill="#64BAD7" sketch:type="MSShapeGroup"></path>
            <path d="M416.947,302.229 L437.277,302.229 L437.277,311.386 L416.947,311.386 L416.947,302.229 Z" id="Fill-31" fill="#64BAD7" sketch:type="MSShapeGroup"></path>
            <path d="M416.947,320.114 L437.277,320.114 L437.277,329.27 L416.947,329.27 L416.947,320.114 Z" id="Fill-32" fill="#64BAD7" sketch:type="MSShapeGroup"></path>
            <path d="M335.859,178.473 L379.581,178.473 L379.581,190.188 L335.859,190.188 L335.859,178.473 Z" id="Fill-33" fill="#64BAD7" sketch:type="MSShapeGroup"></path>
            <path d="M335.859,199.879 L379.581,199.879 L379.581,211.594 L335.859,211.594 L335.859,199.879 Z" id="Fill-34" fill="#64BAD7" sketch:type="MSShapeGroup"></path>
            <path d="M335.859,220.524 L379.581,220.524 L379.581,232.239 L335.859,232.239 L335.859,220.524 Z" id="Fill-35" fill="#64BAD7" sketch:type="MSShapeGroup"></path>
            <path d="M335.859,243.406 L379.581,243.406 L379.581,255.121 L335.859,255.121 L335.859,243.406 Z" id="Fill-36" fill="#64BAD7" sketch:type="MSShapeGroup"></path>
            <path d="M160.702,204.899 L242.298,204.899 L242.298,320.067 L160.702,320.067 L160.702,204.899 Z" id="Fill-37" fill="#64BAD7" sketch:type="MSShapeGroup"></path>
            <path d="M232.837,326.795 C232.693,326.345 218.169,281.396 200.716,254.859 C183.222,228.26 158.841,204.628 158.597,204.391 L162.809,200.46 C163.058,200.701 187.894,224.774 205.728,251.89 C223.597,279.061 237.888,323.293 238.487,325.163 L232.837,326.795" id="Fill-38" fill="#BBE2EE" sketch:type="MSShapeGroup"></path>
            <path d="M157.762,253.645 L154.458,248.996 C198.203,221.005 219.134,200.676 219.34,200.474 L223.583,204.375 C222.723,205.218 202.013,225.33 157.762,253.645" id="Fill-39" fill="#BBE2EE" sketch:type="MSShapeGroup"></path>
            <path d="M182.562,328.222 L179.025,323.733 C235.554,283.613 244.08,232.106 244.161,231.588 L250.005,232.403 C249.666,234.602 241.028,286.729 182.562,328.222" id="Fill-40" fill="#BBE2EE" sketch:type="MSShapeGroup"></path>
            <path d="M158.6,272.084 L157.998,271.119 C158.064,271.081 165.088,267.042 194.642,243.484 L195.401,244.342 C165.698,268.021 158.877,271.929 158.6,272.084" id="Fill-41" fill="#BBE2EE" sketch:type="MSShapeGroup"></path>
            <path d="M156.483,291.564 L155.738,290.694 L201.125,255.602 L201.871,256.472 L156.483,291.564" id="Fill-42" fill="#BBE2EE" sketch:type="MSShapeGroup"></path>
            <path d="M157.358,310.664 L156.645,309.772 L210.421,271.155 L211.136,272.048 L157.358,310.664" id="Fill-43" fill="#BBE2EE" sketch:type="MSShapeGroup"></path>
            <path d="M197.799,293.585 L178.244,236.311 L179.367,235.965 L198.565,292.19 L217.75,286.618 L218.098,287.692 L197.799,293.585" id="Fill-44" fill="#BBE2EE" sketch:type="MSShapeGroup"></path>
            <path d="M198.544,310.471 L197.593,292.915 L198.772,292.858 L199.725,310.416 L198.544,310.471" id="Fill-45" fill="#BBE2EE" sketch:type="MSShapeGroup"></path>
            <path d="M193.521,314.979 L163.669,246.269 L164.76,245.84 L194.612,314.552 L193.521,314.979" id="Fill-46" fill="#BBE2EE" sketch:type="MSShapeGroup"></path>
            <path d="M240.284,253.676 L212.142,211.763 L213.139,211.162 L241.281,253.073 L240.284,253.676" id="Fill-47" fill="#BBE2EE" sketch:type="MSShapeGroup"></path>
            <path d="M213.083,242.978 L212.199,242.232 L232.821,220.222 L232.821,202.424 L234.002,202.424 L234.002,220.648 L213.083,242.978" id="Fill-48" fill="#BBE2EE" sketch:type="MSShapeGroup"></path>
            <path d="M218.326,246.464 L217.519,245.645 L243.577,222.456 L244.386,223.274 L218.326,246.464" id="Fill-49" fill="#BBE2EE" sketch:type="MSShapeGroup"></path>
            <path d="M247.515,312.325 C246.232,311.91 239.381,309.036 230.297,293.17 C226.453,286.46 224.319,279.308 222.252,272.39 C219.429,262.939 216.762,254.013 210.075,247.354 C197.383,234.713 183.361,203.113 182.771,201.774 L189.311,199.175 C189.449,199.491 203.416,230.969 215.206,242.711 C223.104,250.576 226.139,260.733 229.071,270.557 C231.033,277.12 233.06,283.906 236.526,289.957 C244.342,303.608 249.876,305.98 249.931,306.002 L249.804,305.957 L247.515,312.325" id="Fill-50" fill="#5B7D9E" sketch:type="MSShapeGroup"></path>
            <path d="M160.702,204.899 L242.298,204.899 L242.298,320.194 L160.702,320.194 L160.702,204.899 Z M152.863,328.198 L250.135,328.198 L250.135,197.049 L152.863,197.049 L152.863,328.198 Z" id="Fill-51" fill="#BBE2EE" sketch:type="MSShapeGroup"></path>
            <path d="M163.669,238.12 L175.406,229.523 L163.669,216.068 L163.669,238.12" id="Fill-52" fill="#FBEE48" sketch:type="MSShapeGroup"></path>
            <path d="M206.913,222.868 L212.142,234.46 L218.923,228.663 L212.919,219.246 L206.913,222.868" id="Fill-53" fill="#FBEE48" sketch:type="MSShapeGroup"></path>
            <path d="M163.669,308.949 L166.471,316.592 L178.244,316.592 L186.827,312.325 L185.055,305.172 L179.936,306.404 L175.406,301.287 L163.669,308.949" id="Fill-54" fill="#FBEE48" sketch:type="MSShapeGroup"></path>
            <path d="M196.476,262.566 L199.725,269.081 L204.353,265.824 L201.5,259.986 L196.476,262.566" id="Fill-55" fill="#FBEE48" sketch:type="MSShapeGroup"></path>
            <path d="M196.74,268.722 L194.972,263.994 L192.483,266.368 L194.038,270.606 L196.74,268.722" id="Fill-56" fill="#FBEE48" sketch:type="MSShapeGroup"></path>
            <path d="M190.963,250.572 L193.129,255.748 L196.476,253.162 L193.72,247.837 L190.963,250.572" id="Fill-57" fill="#FBEE48" sketch:type="MSShapeGroup"></path>
            <path d="M201.871,281.289 L210.779,275.613 L213.806,285.17 L208.933,285.402 L207.838,282.224 L203.223,283.007 L201.871,281.289" id="Fill-58" fill="#FBEE48" sketch:type="MSShapeGroup"></path>
            <path d="M324.659,45.237 C323.729,45.237 322.828,45.353 321.96,45.553 C322.096,44.701 322.183,43.834 322.183,42.943 C322.183,33.681 314.673,26.171 305.41,26.171 C296.147,26.171 288.636,33.681 288.636,42.943 C288.636,43.997 288.746,45.022 288.931,46.021 C287.614,45.522 286.193,45.237 284.702,45.237 C278.106,45.237 272.758,50.584 272.758,57.18 C272.758,63.777 278.106,69.125 284.702,69.125 L324.659,69.125 C331.254,69.125 336.604,63.777 336.604,57.18 C336.604,50.584 331.254,45.237 324.659,45.237" id="Fill-59" fill="#6EABEB" sketch:type="MSShapeGroup"></path>
            <path d="M283.083,166.755 L283.083,174.086 C321.812,175.086 352.897,206.186 352.897,244.433 C352.897,282.681 321.812,313.78 283.083,314.781 L283.083,322.111 C325.123,321.09 358.895,286.717 358.895,244.433 C358.895,202.149 325.123,167.776 283.083,166.755" id="Fill-60" fill="#3A4153" sketch:type="MSShapeGroup"></path>
            <path d="M287.817,188.801 C287.754,188.801 287.692,188.796 287.627,188.796 C256.109,188.796 230.556,214.348 230.556,245.87 L287.817,245.87 L287.817,188.801" id="Fill-61" fill="#2674A3" sketch:type="MSShapeGroup"></path>
            <path d="M344.7,245.87 C344.7,244.884 344.676,243.908 344.627,242.935 C344.609,242.579 344.569,242.228 344.545,241.872 C344.503,241.26 344.467,240.645 344.407,240.039 C344.363,239.618 344.299,239.203 344.247,238.786 C344.181,238.253 344.125,237.716 344.043,237.188 C343.975,236.728 343.881,236.276 343.802,235.821 C343.715,235.339 343.642,234.856 343.544,234.378 C343.442,233.885 343.32,233.402 343.207,232.913 C343.106,232.483 343.019,232.048 342.907,231.622 C342.771,231.096 342.614,230.577 342.463,230.055 C342.354,229.678 342.257,229.294 342.142,228.916 C341.969,228.36 341.771,227.812 341.582,227.261 C341.467,226.933 341.365,226.598 341.247,226.272 C341.032,225.688 340.797,225.116 340.566,224.54 C340.45,224.256 340.347,223.966 340.227,223.684 C339.976,223.085 339.7,222.499 339.428,221.913 C339.313,221.663 339.208,221.408 339.088,221.159 C338.793,220.546 338.478,219.947 338.16,219.346 C338.05,219.132 337.947,218.915 337.832,218.704 C337.494,218.082 337.138,217.475 336.78,216.869 C336.671,216.687 336.571,216.498 336.463,216.317 C336.067,215.664 335.65,215.027 335.231,214.392 C335.146,214.266 335.069,214.133 334.984,214.008 C334.536,213.343 334.07,212.693 333.596,212.049 C333.529,211.958 333.467,211.865 333.4,211.774 C332.907,211.115 332.397,210.467 331.876,209.829 C331.82,209.761 331.77,209.69 331.711,209.621 C331.17,208.962 330.61,208.319 330.04,207.686 C330,207.642 329.965,207.597 329.927,207.555 C329.328,206.894 328.713,206.248 328.083,205.618 C328.069,205.605 328.059,205.589 328.045,205.576 C317.755,195.256 303.534,188.854 287.818,188.801 C287.818,188.801 287.818,188.801 287.817,188.801 L287.817,245.87 L344.7,245.87" id="Fill-62" fill="#255493" sketch:type="MSShapeGroup"></path>
            <path d="M230.556,245.87 C230.556,277.388 256.109,302.94 287.627,302.94 C287.692,302.94 287.754,302.935 287.817,302.935 L287.817,245.87 L230.556,245.87" id="Fill-63" fill="#255493" sketch:type="MSShapeGroup"></path>
            <path d="M329.927,284.183 C329.965,284.141 330,284.094 330.04,284.052 C330.61,283.417 331.17,282.774 331.711,282.115 C331.77,282.048 331.82,281.975 331.876,281.909 C332.397,281.269 332.907,280.623 333.4,279.962 C333.469,279.871 333.531,279.776 333.598,279.685 C334.072,279.041 334.536,278.393 334.984,277.73 C335.076,277.597 335.158,277.456 335.246,277.322 C335.661,276.694 336.072,276.063 336.463,275.419 C336.571,275.242 336.669,275.056 336.775,274.876 C337.135,274.266 337.494,273.656 337.832,273.034 C337.942,272.829 338.04,272.621 338.149,272.414 C338.469,271.807 338.788,271.199 339.088,270.578 C339.208,270.331 339.313,270.074 339.428,269.825 C339.7,269.237 339.976,268.651 340.227,268.054 C340.349,267.768 340.453,267.473 340.57,267.184 C340.799,266.614 341.034,266.046 341.245,265.466 C341.369,265.129 341.476,264.784 341.594,264.442 C341.777,263.902 341.971,263.365 342.142,262.819 C342.259,262.438 342.359,262.047 342.47,261.661 C342.619,261.146 342.774,260.635 342.907,260.114 C343.019,259.683 343.109,259.242 343.209,258.807 C343.322,258.323 343.444,257.846 343.544,257.358 C343.642,256.883 343.715,256.397 343.802,255.917 C343.881,255.462 343.975,255.01 344.043,254.55 C344.123,254.027 344.181,253.496 344.245,252.968 C344.299,252.544 344.363,252.125 344.407,251.699 C344.467,251.091 344.503,250.476 344.545,249.866 C344.569,249.511 344.609,249.158 344.627,248.803 C344.676,247.83 344.7,246.852 344.7,245.87 L287.817,245.87 L287.817,302.935 L287.818,302.935 C303.534,302.884 317.755,296.482 328.045,286.161 C328.059,286.147 328.069,286.134 328.083,286.121 C328.713,285.488 329.328,284.842 329.927,284.183" id="Fill-64" fill="#203C53" sketch:type="MSShapeGroup"></path>
            <path d="M283.083,302.532 L292.552,302.532 L292.552,346.287 L283.083,346.287 L283.083,302.532 Z" id="Fill-65" fill="#3A4153" sketch:type="MSShapeGroup"></path>
            <path d="M283.083,166.564 L292.552,166.564 L292.552,188.413 L283.083,188.413 L283.083,166.564 Z" id="Fill-66" fill="#544F73" sketch:type="MSShapeGroup"></path>
            <path d="M279.012,177.625 L296.624,177.625 L296.624,189.549 L279.012,189.549 L279.012,177.625 Z" id="Fill-67" fill="#3A4153" sketch:type="MSShapeGroup"></path>
            <path d="M258.086,340.84 L318.308,340.84 L318.308,352.298 L258.086,352.298 L258.086,340.84 Z" id="Fill-68" fill="#544F73" sketch:type="MSShapeGroup"></path>
            <path d="M290.271,340.84 L277.011,352.298 L318.308,352.298 L318.308,340.84 L290.271,340.84" id="Fill-69" fill="#3A4153" sketch:type="MSShapeGroup"></path>
            <path d="M114.129,349.11 L114.055,349.11 C109.139,349.11 105.139,345.113 105.139,340.198 L105.139,301.726 C105.139,294.79 109.861,288.868 116.622,287.324 L124.969,285.414 L125.678,288.522 L117.333,290.43 C112.03,291.642 108.327,296.287 108.327,301.726 L108.327,340.198 C108.327,343.355 110.897,345.922 114.055,345.922 L114.129,349.11" id="Fill-70" fill="#413A2F" sketch:type="MSShapeGroup"></path>
            <path d="M165.943,342.205 L159.625,342.205 L159.625,322.539 C159.625,310.687 150.683,301.042 139.69,301.042 L139.224,301.042 C128.133,301.042 119.235,310.663 118.495,323.431 L118.495,339.954 L112.176,339.954 L112.181,323.165 C113.074,306.92 124.7,294.668 139.224,294.668 L139.69,294.668 C154.167,294.668 165.943,307.171 165.943,322.539 L165.943,342.205" id="Fill-71" fill="#1A1914" sketch:type="MSShapeGroup"></path>
            <path d="M139.645,298.121 L139.212,298.121 C125.743,298.121 114.961,309.482 114.133,324.547 L114.129,339.954 L118.495,339.954 L118.495,323.431 C119.235,310.663 128.133,301.042 139.224,301.042 L139.69,301.042 C150.683,301.042 159.625,310.687 159.625,322.539 L159.625,342.205 L163.991,342.205 L163.991,323.968 C163.991,309.717 153.069,298.121 139.645,298.121" id="Fill-72" fill="#413A2F" sketch:type="MSShapeGroup"></path>
            <path d="M166.22,356.679 L156.062,356.679 C151.882,356.679 148.493,353.29 148.493,349.11 L148.493,339.551 C148.493,335.371 151.882,331.982 156.062,331.982 L166.22,331.982 L166.22,356.679" id="Fill-73" fill="#413A2F" sketch:type="MSShapeGroup"></path>
            <path d="M148.493,349.11 C148.493,353.29 151.882,356.679 156.062,356.679 L165.557,356.679 L165.557,344.993 L148.493,344.993 L148.493,349.11" id="Fill-74" fill="#1A1914" sketch:type="MSShapeGroup"></path>
            <path d="M157.357,331.982 L166.22,331.982 L166.22,356.679 L157.357,356.679 L157.357,331.982 Z" id="Fill-75" fill="#98968B" sketch:type="MSShapeGroup"></path>
            <path d="M161.56,330.581 L163.703,330.581 L163.703,356.679 L161.56,356.679 L161.56,330.581 Z" id="Fill-76" fill="#413A2F" sketch:type="MSShapeGroup"></path>
            <path d="M159.625,331.982 L161.556,331.982 L161.556,356.679 L159.625,356.679 L159.625,331.982 Z" id="Fill-77" fill="#EEE1C9" sketch:type="MSShapeGroup"></path>
            <path d="M112.111,356.679 L122.269,356.679 C126.449,356.679 129.837,353.29 129.837,349.11 L129.837,339.551 C129.837,335.371 126.449,331.982 122.269,331.982 L112.111,331.982 L112.111,356.679" id="Fill-78" fill="#413A2F" sketch:type="MSShapeGroup"></path>
            <path d="M129.837,349.11 C129.837,353.29 126.449,356.679 122.269,356.679 L112.775,356.679 L112.775,344.993 L129.837,344.993 L129.837,349.11" id="Fill-79" fill="#1A1914" sketch:type="MSShapeGroup"></path>
            <path d="M112.111,331.982 L120.975,331.982 L120.975,356.679 L112.111,356.679 L112.111,331.982 Z" id="Fill-80" fill="#98968B" sketch:type="MSShapeGroup"></path>
            <path d="M114.629,330.937 L116.77,330.937 L116.77,356.679 L114.629,356.679 L114.629,330.937 Z" id="Fill-81" fill="#413A2F" sketch:type="MSShapeGroup"></path>
            <path d="M116.776,331.982 L118.706,331.982 L118.706,356.679 L116.776,356.679 L116.776,331.982 Z" id="Fill-82" fill="#EEE1C9" sketch:type="MSShapeGroup"></path>
            <path d="M136.169,289.043 L127,290.566 C125.12,290.876 123.342,289.607 123.029,287.725 L122.703,285.759 C122.391,283.879 123.662,282.102 125.543,281.788 L134.712,280.266 C136.593,279.954 138.372,281.225 138.684,283.107 L139.009,285.071 C139.322,286.953 138.051,288.73 136.169,289.043" id="Fill-83" fill="#1A1914" sketch:type="MSShapeGroup"></path>
            <path d="M320.643,255.34 C318.041,251.697 313.543,249.919 309.156,250.809 C308.112,251.02 304.172,250.807 299.369,250.427 C286.459,249.405 274.991,258.643 273.233,271.472 C272.419,277.399 271.775,282.266 271.775,282.776 C271.775,282.825 271.766,282.882 271.75,282.95 C269.955,290.036 274.176,297.197 281.457,297.849 C282.991,297.987 284.545,298.057 286.115,298.057 C302.685,298.057 317.436,290.273 326.911,278.163 C330.014,274.199 330.141,268.663 327.218,264.564 L320.643,255.34" id="Fill-84" fill="#34A1CE" sketch:type="MSShapeGroup"></path>
            <path d="M326.911,278.163 C327.905,276.893 328.589,275.459 328.971,273.964 C328.691,272.976 328.252,272.024 327.633,271.152 L322.349,263.745 C320.263,260.818 316.65,259.388 313.124,260.103 C312.287,260.274 309.12,260.103 305.264,259.796 C294.894,258.976 285.68,266.397 284.267,276.703 C283.614,281.464 283.097,285.372 283.097,285.784 C283.097,285.821 283.088,285.87 283.077,285.92 C281.661,291.513 284.914,297.152 290.575,297.846 C305.313,296.586 318.294,289.174 326.911,278.163" id="Fill-85" fill="#579542" sketch:type="MSShapeGroup"></path>
            <path d="M326.911,278.163 C327.136,277.874 327.342,277.577 327.535,277.27 L324.129,272.495 C322.573,270.313 319.881,269.25 317.256,269.783 C316.632,269.91 314.273,269.781 311.399,269.552 C303.675,268.942 296.811,274.47 295.759,282.148 C295.272,285.695 294.885,288.608 294.885,288.913 C294.885,288.943 294.88,288.977 294.871,289.016 C294.096,292.079 295.204,295.157 297.519,296.784 C309.362,294.119 319.675,287.408 326.911,278.163" id="Fill-86" fill="#93B23D" sketch:type="MSShapeGroup"></path>
            <path d="M257.968,202.644 L257.935,202.795 C256.085,211.284 260.768,219.843 268.915,222.863 L286.769,229.483 C291.168,231.365 296.061,228.136 296.061,223.351 L296.061,223.187 C296.061,219.652 298.816,216.732 302.343,216.528 L302.491,216.518 C306.865,216.265 309.943,212.114 308.912,207.853 L306.319,197.156 C300.403,194.737 293.934,193.394 287.147,193.394 C276.281,193.394 266.222,196.826 257.968,202.644" id="Fill-87" fill="#7BBEDD" sketch:type="MSShapeGroup"></path>
            <path d="M260.83,200.774 C260.925,205.867 264.099,210.539 269.059,212.379 L281.988,217.173 C285.175,218.536 288.716,216.197 288.716,212.733 L288.716,212.613 C288.716,210.052 290.713,207.937 293.268,207.79 L293.375,207.784 C296.544,207.6 298.772,204.592 298.024,201.508 L296.263,194.231 C293.305,193.69 290.262,193.394 287.147,193.394 C277.505,193.394 268.503,196.1 260.83,200.774" id="Fill-88" fill="#75A140" sketch:type="MSShapeGroup"></path>
            <path d="M264.696,198.645 C265.848,201.149 266.484,203.957 269.237,204.979 L280.208,209.048 C282.911,210.203 285.918,208.221 285.918,205.279 L285.918,205.178 C285.918,203.006 287.611,201.21 289.778,201.086 L289.869,201.081 C292.558,200.926 294.449,198.372 293.814,195.756 L293.102,193.759 C291.07,193.51 289.244,193.394 287.147,193.394 C278.494,193.394 271.822,194.817 264.696,198.645" id="Fill-89" fill="#B9D24A" sketch:type="MSShapeGroup"></path>
            <path d="M242.17,233.815 L236.883,239.975 C235.202,241.935 234.937,244.74 236.224,246.979 L241.13,255.514 C243.204,259.124 248.209,259.634 250.97,256.517 L253.671,253.472 C254.235,252.832 254.928,252.321 255.704,251.967 L266.183,247.194 C269.387,245.734 270.69,241.868 269.021,238.766 L268.962,238.655 C267.408,235.765 263.845,234.624 260.901,236.079 L260.262,236.393 C258.09,237.465 255.491,237.148 253.64,235.587 L250.72,233.126 C248.163,230.972 244.348,231.281 242.17,233.815" id="Fill-90" fill="#33A3CE" sketch:type="MSShapeGroup"></path>
            <path d="M244.737,238.196 L241.494,241.97 C240.465,243.17 240.303,244.893 241.09,246.264 L244.098,251.496 C245.37,253.709 248.437,254.022 250.13,252.112 L251.785,250.244 C252.133,249.853 252.557,249.539 253.033,249.323 L259.457,246.395 C261.421,245.5 262.219,243.13 261.197,241.229 L261.161,241.163 C260.208,239.389 258.023,238.69 256.219,239.582 L255.826,239.776 C254.496,240.432 252.901,240.239 251.767,239.281 L249.976,237.772 C248.409,236.451 246.07,236.64 244.737,238.196" id="Fill-91" fill="#B9D24A" sketch:type="MSShapeGroup"></path>
            <path d="M338.16,219.346 C338.478,219.947 338.793,220.546 339.088,221.159 C338.793,220.546 338.478,219.947 338.16,219.346" id="Fill-92" fill="#D4CD2E" sketch:type="MSShapeGroup"></path>
            <path d="M258.566,223.52 C257.695,222.794 257.238,222.372 257.238,222.372 L258.776,220.7 C258.789,220.71 259.218,221.103 260.02,221.774 L258.566,223.52" id="Fill-93" fill="#FFFFFF" sketch:type="MSShapeGroup"></path>
            <path d="M264.116,227.732 C263.065,226.997 262.123,226.307 261.298,225.684 L262.67,223.871 C263.473,224.479 264.392,225.153 265.416,225.868 L264.116,227.732 L264.116,227.732 Z M269.963,231.502 C268.922,230.883 267.935,230.268 267.007,229.669 L268.236,227.758 C269.144,228.344 270.107,228.944 271.126,229.549 L269.963,231.502 L269.963,231.502 Z M276.07,234.837 C275.005,234.307 273.975,233.768 272.985,233.227 L274.076,231.234 C275.042,231.762 276.046,232.288 277.084,232.805 L276.07,234.837 L276.07,234.837 Z M282.419,237.698 C281.323,237.256 280.255,236.799 279.215,236.329 L280.149,234.258 C281.161,234.715 282.202,235.162 283.269,235.59 L282.419,237.698 L282.419,237.698 Z M288.987,240.029 C287.885,239.691 286.771,239.323 285.677,238.934 L286.436,236.792 C287.487,237.165 288.56,237.521 289.653,237.856 L288.987,240.029 L288.987,240.029 Z M295.75,241.752 C294.618,241.522 293.473,241.257 292.347,240.971 L292.91,238.77 C294,239.047 295.108,239.302 296.205,239.527 L295.75,241.752 L295.75,241.752 Z M302.66,242.798 C301.52,242.687 300.354,242.54 299.191,242.365 L299.531,240.12 C300.654,240.288 301.781,240.428 302.88,240.537 L302.66,242.798 L302.66,242.798 Z M313.124,242.949 L313.006,240.678 C314.162,240.619 315.314,240.601 316.26,240.589 L316.517,240.592 L316.485,242.865 L316.257,242.862 C315.285,242.86 314.237,242.891 313.124,242.949 L313.124,242.949 Z M308.761,243.1 C307.884,243.1 307.015,243.079 306.148,243.044 L306.244,240.774 C307.358,240.819 308.485,240.838 309.615,240.821 L309.65,243.093 C309.354,243.097 309.056,243.1 308.761,243.1 L308.761,243.1 Z M323.046,243.526 C322.115,243.295 321.033,243.121 319.828,243.011 L320.034,240.747 C321.354,240.87 322.551,241.06 323.594,241.32 L323.046,243.526 L323.046,243.526 Z M327.291,246.67 C327.131,245.871 326.656,245.214 325.842,244.664 L327.111,242.78 C328.432,243.67 329.241,244.83 329.519,246.229 L327.291,246.67 L327.291,246.67 Z M327.282,253.452 L325.387,252.199 L325.538,251.972 C326.142,251.058 326.603,250.192 326.907,249.402 L329.028,250.219 C328.664,251.162 328.128,252.174 327.433,253.226 L327.282,253.452 L327.282,253.452 Z M322.287,258.674 L320.917,256.861 C321.792,256.202 322.608,255.476 323.35,254.704 L324.989,256.277 C324.166,257.136 323.257,257.942 322.287,258.674 L322.287,258.674 Z M316.028,262.1 L315.154,260.003 L316.104,259.608 C316.812,259.313 317.509,258.98 318.172,258.621 L319.253,260.62 C318.521,261.015 317.755,261.381 316.979,261.705 L316.028,262.1 L316.028,262.1 Z M309.682,264.741 L308.81,262.642 L311.983,261.324 L312.855,263.422 L309.682,264.741 L309.682,264.741 Z M303.337,267.382 L302.465,265.285 L305.636,263.964 L306.508,266.061 L303.337,267.382 L303.337,267.382 Z M296.992,270.023 L296.12,267.925 L299.292,266.605 L300.164,268.703 L296.992,270.023 L296.992,270.023 Z M290.646,272.662 L289.773,270.564 L292.946,269.244 L293.818,271.341 L290.646,272.662 L290.646,272.662 Z M284.301,275.302 L283.429,273.204 L286.6,271.884 L287.475,273.982 L284.301,275.302 L284.301,275.302 Z" id="Fill-94" fill="#FFFFFF" sketch:type="MSShapeGroup"></path>
            <path d="M277.495,278.091 L276.621,275.995 L280.211,274.543 L281.083,276.64 L277.495,278.091" id="Fill-95" fill="#FFFFFF" sketch:type="MSShapeGroup"></path>
            <path d="M341.582,227.261 C341.771,227.812 341.969,228.36 342.142,228.916 C341.969,228.36 341.771,227.812 341.582,227.261" id="Fill-96" fill="#D4CD2E" sketch:type="MSShapeGroup"></path>
            <path d="M339.428,221.913 C339.7,222.499 339.976,223.085 340.227,223.684 C339.976,223.085 339.7,222.499 339.428,221.913" id="Fill-97" fill="#D4CD2E" sketch:type="MSShapeGroup"></path>
            <path d="M333.687,244.403 C333.687,247.245 331.381,249.551 328.538,249.551 C325.693,249.551 323.39,247.245 323.39,244.403 C323.39,241.557 325.693,239.251 328.538,239.251 C331.381,239.251 333.687,241.557 333.687,244.403" id="Fill-98" fill="#E25F29" sketch:type="MSShapeGroup"></path>
            <path d="M342.463,230.055 C342.614,230.577 342.771,231.096 342.907,231.622 C342.771,231.096 342.614,230.577 342.463,230.055" id="Fill-99" fill="#D4CD2E" sketch:type="MSShapeGroup"></path>
            <path d="M344.247,238.786 C344.299,239.203 344.363,239.618 344.407,240.039 C344.363,239.618 344.299,239.203 344.247,238.786" id="Fill-100" fill="#D4CD2E" sketch:type="MSShapeGroup"></path>
            <path d="M343.207,232.913 C343.32,233.402 343.442,233.885 343.544,234.378 C343.442,233.885 343.32,233.402 343.207,232.913" id="Fill-101" fill="#D4CD2E" sketch:type="MSShapeGroup"></path>
            <path d="M343.802,235.821 C343.881,236.276 343.975,236.728 344.043,237.188 C343.975,236.728 343.881,236.276 343.802,235.821" id="Fill-102" fill="#D4CD2E" sketch:type="MSShapeGroup"></path>
            <path d="M330.04,207.686 C330.61,208.319 331.17,208.962 331.711,209.621 C331.17,208.962 330.61,208.319 330.04,207.686" id="Fill-103" fill="#D4CD2E" sketch:type="MSShapeGroup"></path>
            <path d="M328.083,205.618 C328.713,206.248 329.328,206.894 329.927,207.555 C329.328,206.894 328.713,206.248 328.083,205.618" id="Fill-104" fill="#D4CD2E" sketch:type="MSShapeGroup"></path>
            <path d="M344.545,241.872 C344.569,242.228 344.609,242.579 344.627,242.935 C344.609,242.579 344.569,242.228 344.545,241.872" id="Fill-105" fill="#D4CD2E" sketch:type="MSShapeGroup"></path>
            <path d="M333.596,212.049 C334.07,212.693 334.536,213.343 334.984,214.008 C334.536,213.343 334.07,212.693 333.596,212.049" id="Fill-106" fill="#D4CD2E" sketch:type="MSShapeGroup"></path>
            <path d="M335.231,214.392 C335.65,215.027 336.067,215.664 336.463,216.317 C336.067,215.664 335.65,215.027 335.231,214.392" id="Fill-107" fill="#D4CD2E" sketch:type="MSShapeGroup"></path>
            <path d="M331.876,209.829 C332.397,210.467 332.907,211.115 333.4,211.774 C332.907,211.115 332.395,210.467 331.876,209.829" id="Fill-108" fill="#D4CD2E" sketch:type="MSShapeGroup"></path>
            <path d="M336.78,216.869 C337.138,217.475 337.494,218.082 337.832,218.704 C337.494,218.082 337.138,217.475 336.78,216.869" id="Fill-109" fill="#D4CD2E" sketch:type="MSShapeGroup"></path>
            <path d="M340.566,224.54 C340.797,225.116 341.032,225.688 341.247,226.272 C341.032,225.688 340.797,225.116 340.566,224.54" id="Fill-110" fill="#D4CD2E" sketch:type="MSShapeGroup"></path>
            <path d="M331.876,281.909 C331.82,281.975 331.77,282.048 331.711,282.115 C331.77,282.048 331.82,281.975 331.876,281.909" id="Fill-111" fill="#93B13D" sketch:type="MSShapeGroup"></path>
            <path d="M340.227,223.684 C340.347,223.966 340.45,224.256 340.566,224.54 C340.45,224.256 340.347,223.966 340.227,223.684" id="Fill-112" fill="#93B13D" sketch:type="MSShapeGroup"></path>
            <path d="M341.247,226.272 C341.365,226.598 341.467,226.933 341.582,227.261 C341.467,226.933 341.365,226.598 341.247,226.272" id="Fill-113" fill="#93B13D" sketch:type="MSShapeGroup"></path>
            <path d="M339.088,221.159 C339.208,221.408 339.313,221.663 339.428,221.913 C339.313,221.663 339.208,221.408 339.088,221.159" id="Fill-114" fill="#93B13D" sketch:type="MSShapeGroup"></path>
            <path d="M330.04,284.052 C330,284.094 329.965,284.141 329.927,284.183 C329.965,284.141 330,284.094 330.04,284.052" id="Fill-115" fill="#93B13D" sketch:type="MSShapeGroup"></path>
            <path d="M337.832,218.704 C337.947,218.915 338.05,219.132 338.16,219.346 C338.05,219.132 337.947,218.915 337.832,218.704" id="Fill-116" fill="#93B13D" sketch:type="MSShapeGroup"></path>
            <path d="M335.246,277.322 C335.158,277.456 335.076,277.597 334.984,277.73 C335.076,277.597 335.158,277.456 335.246,277.322" id="Fill-117" fill="#93B13D" sketch:type="MSShapeGroup"></path>
            <path d="M343.544,234.378 C343.642,234.856 343.715,235.339 343.802,235.821 C343.715,235.339 343.642,234.856 343.544,234.378" id="Fill-118" fill="#93B13D" sketch:type="MSShapeGroup"></path>
            <path d="M342.142,228.916 C342.257,229.294 342.354,229.678 342.463,230.055 C342.354,229.678 342.257,229.294 342.142,228.916" id="Fill-119" fill="#93B13D" sketch:type="MSShapeGroup"></path>
            <path d="M342.907,231.622 C343.019,232.048 343.106,232.483 343.207,232.913 C343.106,232.483 343.019,232.048 342.907,231.622" id="Fill-120" fill="#93B13D" sketch:type="MSShapeGroup"></path>
            <path d="M333.598,279.685 C333.531,279.776 333.469,279.871 333.4,279.962 C333.469,279.871 333.531,279.776 333.598,279.685" id="Fill-121" fill="#93B13D" sketch:type="MSShapeGroup"></path>
            <path d="M287.817,188.801 L287.817,188.801 L287.818,188.801 C287.818,188.801 287.818,188.801 287.817,188.801" id="Fill-122" fill="#93B13D" sketch:type="MSShapeGroup"></path>
            <path d="M329.927,207.555 C329.965,207.597 330,207.642 330.04,207.686 C330,207.642 329.965,207.597 329.927,207.555" id="Fill-123" fill="#93B13D" sketch:type="MSShapeGroup"></path>
            <path d="M328.045,205.576 C328.059,205.589 328.069,205.605 328.083,205.618 C328.069,205.605 328.059,205.589 328.045,205.576" id="Fill-124" fill="#93B13D" sketch:type="MSShapeGroup"></path>
            <path d="M328.083,286.121 C328.069,286.134 328.059,286.147 328.045,286.161 C328.059,286.147 328.069,286.134 328.083,286.121" id="Fill-125" fill="#93B13D" sketch:type="MSShapeGroup"></path>
            <path d="M287.817,302.935 L287.818,302.935 C287.818,302.935 287.818,302.935 287.817,302.935" id="Fill-126" fill="#93B13D" sketch:type="MSShapeGroup"></path>
            <path d="M336.463,216.317 C336.571,216.498 336.671,216.687 336.78,216.869 C336.671,216.687 336.571,216.498 336.463,216.317" id="Fill-127" fill="#93B13D" sketch:type="MSShapeGroup"></path>
            <path d="M344.043,237.188 C344.125,237.716 344.181,238.253 344.247,238.786 C344.181,238.253 344.125,237.716 344.043,237.188" id="Fill-128" fill="#93B13D" sketch:type="MSShapeGroup"></path>
            <path d="M334.984,214.008 C335.069,214.133 335.146,214.266 335.231,214.392 C335.146,214.266 335.069,214.133 334.984,214.008" id="Fill-129" fill="#93B13D" sketch:type="MSShapeGroup"></path>
            <path d="M331.711,209.621 C331.77,209.69 331.82,209.761 331.876,209.829 C331.82,209.761 331.77,209.69 331.711,209.621" id="Fill-130" fill="#93B13D" sketch:type="MSShapeGroup"></path>
            <path d="M333.4,211.774 C333.467,211.865 333.529,211.958 333.596,212.049 C333.529,211.958 333.467,211.865 333.4,211.774" id="Fill-131" fill="#93B13D" sketch:type="MSShapeGroup"></path>
            <path d="M338.149,272.414 C338.04,272.621 337.942,272.829 337.832,273.034 C337.942,272.829 338.04,272.621 338.149,272.414" id="Fill-132" fill="#93B13D" sketch:type="MSShapeGroup"></path>
            <path d="M344.245,252.968 C344.181,253.496 344.123,254.027 344.043,254.55 C344.123,254.027 344.179,253.496 344.245,252.968" id="Fill-133" fill="#93B13D" sketch:type="MSShapeGroup"></path>
            <path d="M343.209,258.807 C343.109,259.242 343.019,259.683 342.907,260.114 C343.019,259.683 343.109,259.242 343.209,258.807" id="Fill-134" fill="#93B13D" sketch:type="MSShapeGroup"></path>
            <path d="M343.802,255.917 C343.715,256.397 343.642,256.883 343.544,257.358 C343.642,256.883 343.715,256.397 343.802,255.917" id="Fill-135" fill="#93B13D" sketch:type="MSShapeGroup"></path>
            <path d="M341.594,264.442 C341.476,264.784 341.369,265.129 341.245,265.466 C341.369,265.129 341.476,264.784 341.594,264.442" id="Fill-136" fill="#93B13D" sketch:type="MSShapeGroup"></path>
            <path d="M344.545,249.866 C344.503,250.476 344.467,251.091 344.407,251.699 C344.467,251.091 344.503,250.476 344.545,249.866" id="Fill-137" fill="#93B13D" sketch:type="MSShapeGroup"></path>
            <path d="M340.57,267.184 C340.453,267.473 340.349,267.768 340.227,268.054 C340.349,267.768 340.453,267.473 340.57,267.184" id="Fill-138" fill="#93B13D" sketch:type="MSShapeGroup"></path>
            <path d="M339.428,269.825 C339.313,270.074 339.208,270.331 339.088,270.578 C339.208,270.331 339.313,270.074 339.428,269.825" id="Fill-139" fill="#93B13D" sketch:type="MSShapeGroup"></path>
            <path d="M342.47,261.661 C342.359,262.047 342.259,262.438 342.142,262.819 C342.259,262.438 342.359,262.047 342.47,261.661" id="Fill-140" fill="#93B13D" sketch:type="MSShapeGroup"></path>
            <path d="M336.775,274.876 C336.669,275.056 336.571,275.242 336.463,275.419 C336.571,275.242 336.669,275.056 336.775,274.876" id="Fill-141" fill="#93B13D" sketch:type="MSShapeGroup"></path>
            <path d="M344.407,240.039 C344.467,240.645 344.503,241.26 344.545,241.872 C344.503,241.26 344.467,240.645 344.407,240.039" id="Fill-142" fill="#93B13D" sketch:type="MSShapeGroup"></path>
            <path d="M344.627,242.935 C344.676,243.908 344.7,244.884 344.7,245.87 C344.7,244.884 344.676,243.908 344.627,242.935" id="Fill-143" fill="#93B13D" sketch:type="MSShapeGroup"></path>
            <path d="M344.7,245.87 C344.7,246.852 344.676,247.83 344.627,248.803 C344.676,247.83 344.7,246.852 344.7,245.87" id="Fill-144" fill="#93B13D" sketch:type="MSShapeGroup"></path>
            <path d="M337.832,273.034 C337.494,273.656 337.135,274.266 336.775,274.876 C337.135,274.266 337.494,273.656 337.832,273.034" id="Fill-145" fill="#FDE91D" sketch:type="MSShapeGroup"></path>
            <path d="M342.142,262.819 C341.971,263.365 341.777,263.902 341.594,264.442 C341.777,263.902 341.971,263.365 342.142,262.819" id="Fill-146" fill="#FDE91D" sketch:type="MSShapeGroup"></path>
            <path d="M336.463,275.419 C336.072,276.063 335.661,276.694 335.246,277.322 C335.661,276.694 336.072,276.063 336.463,275.419" id="Fill-147" fill="#FDE91D" sketch:type="MSShapeGroup"></path>
            <path d="M341.245,265.466 C341.034,266.046 340.799,266.614 340.57,267.184 C340.799,266.614 341.034,266.046 341.245,265.466" id="Fill-148" fill="#FDE91D" sketch:type="MSShapeGroup"></path>
            <path d="M340.227,268.054 C339.976,268.651 339.7,269.237 339.428,269.825 C339.7,269.237 339.976,268.651 340.227,268.054" id="Fill-149" fill="#FDE91D" sketch:type="MSShapeGroup"></path>
            <path d="M334.984,277.73 C334.536,278.393 334.072,279.041 333.598,279.685 C334.072,279.041 334.536,278.393 334.984,277.73" id="Fill-150" fill="#FDE91D" sketch:type="MSShapeGroup"></path>
            <path d="M331.711,282.115 C331.17,282.774 330.61,283.417 330.04,284.052 C330.61,283.417 331.17,282.774 331.711,282.115" id="Fill-151" fill="#FDE91D" sketch:type="MSShapeGroup"></path>
            <path d="M339.088,270.578 C338.788,271.199 338.469,271.807 338.149,272.414 C338.469,271.807 338.788,271.199 339.088,270.578" id="Fill-152" fill="#FDE91D" sketch:type="MSShapeGroup"></path>
            <path d="M342.907,260.114 C342.774,260.635 342.619,261.146 342.47,261.661 C342.619,261.146 342.774,260.635 342.907,260.114" id="Fill-153" fill="#FDE91D" sketch:type="MSShapeGroup"></path>
            <path d="M344.407,251.699 C344.363,252.125 344.299,252.544 344.245,252.968 C344.299,252.544 344.363,252.125 344.407,251.699" id="Fill-154" fill="#FDE91D" sketch:type="MSShapeGroup"></path>
            <path d="M344.043,254.55 C343.975,255.01 343.881,255.462 343.802,255.917 C343.881,255.46 343.975,255.01 344.043,254.55" id="Fill-155" fill="#FDE91D" sketch:type="MSShapeGroup"></path>
            <path d="M333.4,279.962 C332.907,280.623 332.397,281.269 331.876,281.909 C332.395,281.269 332.907,280.623 333.4,279.962" id="Fill-156" fill="#FDE91D" sketch:type="MSShapeGroup"></path>
            <path d="M256.659,216.001 C256.659,218.569 254.579,220.651 252.012,220.651 C249.444,220.651 247.364,218.569 247.364,216.001 C247.364,213.436 249.444,211.354 252.012,211.354 C254.579,211.354 256.659,213.436 256.659,216.001" id="Fill-157" fill="#E25F29" sketch:type="MSShapeGroup"></path>
            <path d="M329.927,284.183 C329.328,284.842 328.713,285.488 328.083,286.121 C328.713,285.488 329.328,284.842 329.927,284.183" id="Fill-158" fill="#FDE91D" sketch:type="MSShapeGroup"></path>
            <path d="M344.627,248.803 C344.609,249.158 344.569,249.511 344.545,249.866 C344.569,249.511 344.609,249.158 344.627,248.803" id="Fill-159" fill="#FDE91D" sketch:type="MSShapeGroup"></path>
            <path d="M343.544,257.358 C343.444,257.846 343.322,258.323 343.209,258.807 C343.322,258.323 343.444,257.846 343.544,257.358" id="Fill-160" fill="#FDE91D" sketch:type="MSShapeGroup"></path>
            <path d="M273.832,279.35 C273.832,282.097 271.604,284.328 268.854,284.328 C266.107,284.328 263.879,282.097 263.879,279.35 C263.879,276.6 266.107,274.372 268.854,274.372 C271.604,274.372 273.832,276.6 273.832,279.35" id="Fill-161" fill="#DC3A2A" sketch:type="MSShapeGroup"></path>
            <path d="M268.165,252.077 C270.066,252.077 271.606,253.617 271.606,255.518 C271.606,257.417 270.066,258.957 268.165,258.957 C266.265,258.957 264.725,257.417 264.725,255.518 C264.725,253.617 266.265,252.077 268.165,252.077 L268.165,252.077 Z M274.784,256.048 L274.784,256.048 C274.821,255.795 274.844,255.565 274.844,255.37 C274.844,255.143 274.832,254.919 274.81,254.697 C274.779,254.393 274.72,254.098 274.65,253.807 C274.649,253.8 274.646,253.796 274.646,253.789 C274.619,253.681 274.592,253.57 274.56,253.461 C274.531,253.361 274.494,253.263 274.459,253.165 C274.458,253.162 274.456,253.157 274.454,253.153 C274.447,253.135 274.44,253.115 274.434,253.097 C274.369,252.921 274.298,252.75 274.221,252.584 C274.215,252.571 274.209,252.56 274.203,252.546 C274.176,252.492 274.148,252.436 274.122,252.378 C274.059,252.253 273.99,252.131 273.919,252.012 C273.91,251.998 273.902,251.985 273.895,251.972 C273.839,251.881 273.788,251.788 273.729,251.699 C273.728,251.699 273.728,251.699 273.728,251.697 C273.555,251.439 273.358,251.2 273.152,250.969 C273.141,250.955 273.131,250.945 273.12,250.933 C273.075,250.884 273.03,250.833 272.984,250.785 C272.741,250.532 272.476,250.303 272.195,250.092 C272.186,250.085 272.177,250.077 272.168,250.07 C272.113,250.033 272.061,249.991 272.007,249.951 C271.842,249.837 271.671,249.731 271.495,249.63 C271.476,249.618 271.458,249.606 271.438,249.595 C271.438,249.595 271.436,249.595 271.436,249.593 C271.077,249.395 270.696,249.231 270.301,249.1 C270.292,249.098 270.281,249.093 270.271,249.089 C270.079,249.027 269.882,248.976 269.682,248.932 C269.671,248.929 269.66,248.925 269.648,248.922 L269.647,248.922 C269.506,248.892 269.363,248.87 269.218,248.849 C269.212,248.847 269.205,248.847 269.199,248.845 C269.136,248.836 269.074,248.825 269.011,248.816 C268.848,248.798 268.683,248.789 268.517,248.783 C268.468,248.779 268.421,248.774 268.371,248.772 L268.371,248.776 C268.329,248.774 268.287,248.77 268.244,248.77 C264.598,248.77 261.645,251.723 261.645,255.37 C261.645,259.013 268.244,273.007 268.244,273.007 C268.244,273.007 268.362,272.754 268.564,272.32 C268.57,272.306 268.575,272.297 268.581,272.284 C268.59,272.262 268.599,272.242 268.61,272.219 C268.624,272.189 268.644,272.146 268.659,272.113 C268.724,271.971 268.796,271.816 268.874,271.645 C268.884,271.622 268.892,271.605 268.903,271.58 C268.912,271.563 268.919,271.545 268.928,271.53 C268.939,271.505 268.952,271.472 268.964,271.448 C269.188,270.954 269.454,270.371 269.747,269.712 C269.751,269.701 269.755,269.692 269.76,269.681 C269.765,269.672 269.769,269.665 269.772,269.657 C269.794,269.606 269.82,269.547 269.842,269.496 C269.958,269.237 270.079,268.964 270.202,268.684 C270.215,268.651 270.228,268.622 270.244,268.589 C270.26,268.551 270.277,268.513 270.295,268.474 C270.295,268.471 270.297,268.469 270.297,268.467 C270.472,268.068 270.652,267.653 270.834,267.226 C270.841,267.213 270.847,267.198 270.854,267.184 C270.856,267.175 270.861,267.166 270.863,267.16 C271.021,266.791 271.181,266.416 271.342,266.035 C271.369,265.97 271.396,265.906 271.424,265.839 C271.424,265.837 271.427,265.835 271.428,265.83 C271.595,265.431 271.763,265.027 271.929,264.621 C271.95,264.57 271.97,264.519 271.991,264.468 C271.994,264.463 271.996,264.456 271.999,264.451 C272.534,263.139 273.051,261.812 273.495,260.569 C273.497,260.565 273.497,260.562 273.499,260.56 C273.512,260.522 273.526,260.487 273.538,260.452 C273.541,260.445 273.542,260.438 273.545,260.431 C273.677,260.056 273.802,259.695 273.919,259.339 C273.922,259.33 273.925,259.322 273.928,259.313 C273.943,259.269 273.958,259.222 273.973,259.177 C274.227,258.401 274.437,257.684 274.587,257.056 L274.587,257.054 C274.596,257.018 274.604,256.985 274.611,256.95 C274.687,256.625 274.744,256.326 274.784,256.057 L274.784,256.048 L274.784,256.048 Z" id="Fill-162" fill="#ECF5EB" sketch:type="MSShapeGroup"></path>
            <path d="M251.934,188.435 C253.833,188.435 255.373,189.977 255.373,191.877 C255.373,193.776 253.833,195.319 251.934,195.319 C250.032,195.319 248.491,193.776 248.491,191.877 C248.491,189.977 250.032,188.435 251.934,188.435 L251.934,188.435 Z M258.553,192.41 L258.553,192.41 C258.589,192.156 258.611,191.926 258.611,191.728 C258.611,191.502 258.6,191.278 258.578,191.058 L258.578,191.056 C258.546,190.751 258.489,190.456 258.418,190.166 C258.416,190.162 258.415,190.155 258.414,190.15 C258.387,190.039 258.36,189.928 258.329,189.822 C258.298,189.72 258.261,189.624 258.227,189.527 C258.225,189.522 258.224,189.518 258.223,189.513 C258.216,189.494 258.208,189.475 258.201,189.455 C258.137,189.283 258.067,189.112 257.988,188.943 C257.983,188.932 257.976,188.918 257.972,188.908 C257.944,188.85 257.916,188.794 257.89,188.739 C257.825,188.612 257.758,188.49 257.686,188.371 C257.678,188.357 257.67,188.344 257.662,188.33 C257.608,188.242 257.556,188.148 257.497,188.06 C257.497,188.058 257.496,188.058 257.495,188.058 C257.321,187.798 257.126,187.558 256.92,187.328 C256.909,187.316 256.899,187.303 256.889,187.292 C256.842,187.243 256.798,187.194 256.752,187.143 C256.509,186.892 256.244,186.662 255.963,186.453 C255.955,186.444 255.944,186.437 255.935,186.431 C255.881,186.391 255.828,186.349 255.775,186.311 C255.609,186.196 255.439,186.089 255.263,185.989 C255.244,185.978 255.225,185.965 255.205,185.954 C255.205,185.954 255.205,185.954 255.203,185.954 C254.845,185.754 254.465,185.59 254.069,185.461 C254.06,185.456 254.049,185.452 254.04,185.45 C254.04,185.45 254.04,185.45 254.038,185.45 C253.846,185.388 253.65,185.334 253.45,185.29 C253.438,185.288 253.427,185.284 253.416,185.281 L253.415,185.281 C253.274,185.25 253.129,185.23 252.985,185.208 C252.979,185.208 252.973,185.206 252.967,185.206 C252.904,185.197 252.842,185.186 252.779,185.177 C252.616,185.157 252.45,185.15 252.284,185.142 C252.236,185.14 252.188,185.133 252.14,185.133 L252.14,185.135 C252.097,185.135 252.056,185.128 252.011,185.128 C248.367,185.128 245.411,188.084 245.411,191.728 C245.411,195.374 252.011,209.366 252.011,209.366 C252.011,209.366 252.131,209.116 252.332,208.678 C252.337,208.664 252.342,208.656 252.348,208.643 C252.358,208.621 252.367,208.603 252.377,208.58 C252.393,208.549 252.413,208.505 252.427,208.472 C252.493,208.331 252.563,208.176 252.641,208.005 C252.652,207.981 252.66,207.963 252.672,207.939 C252.679,207.923 252.688,207.906 252.694,207.888 C252.707,207.864 252.721,207.832 252.732,207.806 C252.957,207.316 253.221,206.73 253.515,206.071 C253.52,206.062 253.523,206.053 253.529,206.041 C253.532,206.033 253.536,206.024 253.54,206.015 C253.563,205.966 253.586,205.909 253.61,205.858 C253.727,205.596 253.846,205.325 253.969,205.043 C253.984,205.012 253.997,204.983 254.011,204.95 C254.028,204.91 254.044,204.872 254.062,204.832 C254.064,204.83 254.064,204.828 254.065,204.826 C254.239,204.428 254.419,204.013 254.603,203.587 C254.608,203.572 254.615,203.558 254.621,203.543 C254.625,203.537 254.627,203.528 254.632,203.519 C254.79,203.153 254.949,202.778 255.109,202.396 C255.137,202.331 255.165,202.265 255.191,202.201 C255.193,202.196 255.194,202.194 255.195,202.192 C255.363,201.792 255.531,201.388 255.697,200.98 C255.718,200.929 255.739,200.88 255.759,200.829 C255.761,200.823 255.764,200.816 255.766,200.811 C256.301,199.499 256.819,198.17 257.264,196.927 C257.264,196.925 257.266,196.921 257.266,196.918 C257.279,196.883 257.292,196.845 257.306,196.81 C257.308,196.803 257.311,196.799 257.313,196.792 C257.446,196.417 257.57,196.053 257.688,195.698 C257.69,195.692 257.693,195.68 257.697,195.673 C257.71,195.627 257.726,195.582 257.741,195.537 C257.994,194.762 258.205,194.045 258.354,193.414 L258.355,193.414 C258.363,193.377 258.371,193.344 258.379,193.308 C258.455,192.984 258.513,192.687 258.551,192.416 C258.552,192.414 258.552,192.412 258.553,192.41 L258.553,192.41 Z" id="Fill-163" fill="#ECF5EB" sketch:type="MSShapeGroup"></path>
            <path d="M328.458,223.426 C330.36,223.426 331.9,224.969 331.9,226.869 C331.9,228.768 330.36,230.311 328.458,230.311 C326.559,230.311 325.019,228.768 325.019,226.869 C325.019,224.969 326.559,223.426 328.458,223.426 L328.458,223.426 Z M335.078,227.401 L335.078,227.401 C335.115,227.148 335.138,226.917 335.138,226.72 C335.138,226.494 335.127,226.27 335.104,226.049 L335.104,226.047 C335.073,225.744 335.014,225.449 334.944,225.158 C334.942,225.153 334.94,225.147 334.94,225.142 C334.914,225.031 334.887,224.92 334.854,224.814 C334.825,224.711 334.787,224.617 334.754,224.519 C334.752,224.514 334.749,224.509 334.747,224.505 C334.74,224.485 334.734,224.467 334.728,224.448 C334.663,224.275 334.592,224.104 334.515,223.935 C334.51,223.924 334.503,223.911 334.496,223.9 C334.47,223.841 334.443,223.787 334.417,223.731 C334.353,223.604 334.283,223.482 334.213,223.363 C334.203,223.349 334.197,223.335 334.188,223.323 C334.133,223.234 334.081,223.14 334.023,223.051 L334.021,223.049 C333.849,222.789 333.653,222.55 333.447,222.32 C333.436,222.308 333.425,222.295 333.413,222.284 C333.369,222.235 333.325,222.186 333.278,222.135 C333.036,221.884 332.77,221.654 332.49,221.445 C332.479,221.436 332.471,221.429 332.462,221.422 C332.408,221.383 332.355,221.34 332.302,221.303 C332.136,221.188 331.965,221.081 331.789,220.981 C331.77,220.97 331.751,220.956 331.731,220.946 L331.729,220.946 C331.372,220.746 330.99,220.581 330.595,220.453 C330.586,220.449 330.575,220.444 330.566,220.442 L330.564,220.442 C330.373,220.379 330.176,220.327 329.976,220.282 C329.965,220.28 329.954,220.276 329.942,220.273 L329.94,220.273 C329.801,220.243 329.656,220.222 329.513,220.2 C329.506,220.2 329.499,220.198 329.492,220.198 C329.43,220.189 329.368,220.178 329.306,220.169 C329.142,220.149 328.978,220.142 328.811,220.133 C328.762,220.131 328.716,220.124 328.664,220.124 L328.664,220.126 C328.622,220.126 328.58,220.121 328.538,220.121 C324.892,220.121 321.938,223.076 321.938,226.72 C321.938,230.366 328.538,244.358 328.538,244.358 C328.538,244.358 328.655,244.107 328.857,243.67 C328.864,243.657 328.869,243.648 328.875,243.634 C328.884,243.613 328.893,243.594 328.904,243.573 C328.918,243.541 328.938,243.496 328.953,243.463 C329.018,243.324 329.091,243.168 329.168,242.997 C329.18,242.973 329.186,242.955 329.197,242.931 C329.206,242.915 329.213,242.898 329.222,242.88 C329.232,242.856 329.246,242.825 329.259,242.798 C329.483,242.307 329.747,241.721 330.04,241.063 C330.045,241.053 330.049,241.044 330.054,241.034 C330.059,241.025 330.063,241.016 330.067,241.007 C330.089,240.958 330.113,240.901 330.136,240.849 C330.254,240.587 330.373,240.317 330.495,240.035 C330.509,240.004 330.521,239.975 330.537,239.942 C330.556,239.902 330.57,239.864 330.589,239.825 C330.589,239.822 330.591,239.82 330.591,239.818 C330.766,239.42 330.945,239.005 331.128,238.579 C331.135,238.564 331.141,238.55 331.147,238.535 C331.15,238.528 331.154,238.519 331.156,238.51 C331.316,238.144 331.477,237.769 331.636,237.387 C331.662,237.323 331.689,237.256 331.718,237.192 C331.718,237.188 331.721,237.186 331.723,237.183 C331.889,236.784 332.058,236.38 332.224,235.972 C332.244,235.92 332.264,235.871 332.286,235.821 C332.288,235.814 332.291,235.807 332.293,235.803 C332.828,234.492 333.345,233.163 333.789,231.919 C333.791,231.917 333.791,231.913 333.793,231.911 C333.807,231.875 333.819,231.837 333.833,231.802 C333.835,231.795 333.838,231.79 333.84,231.784 C333.971,231.409 334.097,231.045 334.213,230.69 C334.217,230.683 334.219,230.672 334.222,230.665 C334.237,230.619 334.252,230.575 334.268,230.528 C334.521,229.753 334.731,229.037 334.881,228.407 C334.89,228.369 334.898,228.335 334.905,228.3 C334.98,227.976 335.038,227.678 335.078,227.408 L335.078,227.401 L335.078,227.401 Z" id="Fill-164" fill="#ECF5EB" sketch:type="MSShapeGroup"></path>
            <path d="M314.42,284.804 L366.033,284.804 L366.033,351.623 L314.42,351.623 L314.42,284.804 Z" id="Fill-165" fill="#DC3654" sketch:type="MSShapeGroup"></path>
            <path d="M339.785,284.804 L366.033,284.804 L366.033,351.623 L339.785,351.623 L339.785,284.804 Z" id="Fill-166" fill="#B7243C" sketch:type="MSShapeGroup"></path>
            <path d="M328.649,297.711 L352.159,297.711 L352.159,310.258 L328.649,310.258 L328.649,297.711 Z" id="Fill-167" fill="#FFFFFF" sketch:type="MSShapeGroup"></path>
            <path d="M339.679,297.711 L352.159,297.711 L352.159,310.258 L339.679,310.258 L339.679,297.711 Z" id="Fill-168" fill="#F9D3C3" sketch:type="MSShapeGroup"></path>
            <path d="M328.649,316.27 L352.159,316.27 L352.159,320.158 L328.649,320.158 L328.649,316.27 Z" id="Fill-169" fill="#FFFFFF" sketch:type="MSShapeGroup"></path>
            <path d="M339.679,316.27 L352.159,316.27 L352.159,320.158 L339.679,320.158 L339.679,316.27 Z" id="Fill-170" fill="#F9D3C3" sketch:type="MSShapeGroup"></path>
            <path d="M314.42,347.991 L366.033,347.991 L366.033,355.423 L314.42,355.423 L314.42,347.991 Z" id="Fill-171" fill="#B7243C" sketch:type="MSShapeGroup"></path>
            <path d="M314.42,352.785 L366.033,352.785 L366.033,355.423 L314.42,355.423 L314.42,352.785 Z" id="Fill-172" fill="#12593E" sketch:type="MSShapeGroup"></path>
            <path d="M332.521,301.393 L348.493,301.393 L348.493,302.895 L332.521,302.895 L332.521,301.393 Z" id="Fill-173" fill="#2D2E2B" sketch:type="MSShapeGroup"></path>
            <path d="M332.521,304.953 L348.493,304.953 L348.493,306.453 L332.521,306.453 L332.521,304.953 Z" id="Fill-174" fill="#2D2E2B" sketch:type="MSShapeGroup"></path>
            <path d="M361.673,312.946 L427.16,312.946 L427.16,353.547 L361.673,353.547 L361.673,312.946 Z" id="Fill-209" fill="#3A4153" sketch:type="MSShapeGroup"></path>
            <path d="M357.72,337.683 L431.112,337.683 L431.112,347.991 L357.72,347.991 L357.72,337.683 Z" id="Fill-210" fill="#F1AA49" sketch:type="MSShapeGroup"></path>
            <path d="M409.176,136.014 C410.801,136.014 412.325,136.428 413.659,137.154 C415.452,131.808 420.494,127.95 426.445,127.95 C427.275,127.95 428.083,128.035 428.873,128.179 C429.535,120.002 436.37,113.566 444.718,113.566 C453.506,113.566 460.632,120.69 460.632,129.477 C460.632,129.948 460.601,130.412 460.561,130.872 C461.706,130.523 462.922,130.331 464.183,130.331 C471.009,130.331 476.543,135.864 476.543,142.69 C476.543,149.519 471.009,155.051 464.183,155.051 C457.689,155.051 432.839,154.945 426.445,154.945 C422.655,154.945 412.31,154.767 409.176,154.767 C403.996,154.767 399.8,150.569 399.8,145.39 C399.8,140.212 403.996,136.014 409.176,136.014" id="Fill-233" fill="#FFFFFF" sketch:type="MSShapeGroup"></path>
            <path d="M357.72,323.48 L431.112,323.48 L431.112,333.788 L357.72,333.788 L357.72,323.48 Z" id="Fill-211" fill="#F1AA49" sketch:type="MSShapeGroup"></path>
            <g id="Group" transform="translate(348.627000, 160.965000)" sketch:type="MSShapeGroup">
                <path d="M30.258766,41.2079424 L30.058766,41.0089424 C24.615766,35.5669424 22.134766,29.2289424 24.512766,26.8499424 L47.358766,4.00194244 C50.793766,0.567942441 56.310766,-0.654057559 63.310766,0.469942441 L66.246766,0.941942441 C67.568766,1.15194244 69.411766,2.96694244 69.677766,4.31694244 L70.198766,6.95794244 C71.710766,14.5949424 70.567766,20.6089424 66.910766,24.2649424 L44.421766,46.7559424 C42.042766,49.1339424 35.699766,46.6509424 30.258766,41.2079424" id="Fill-194" fill="#C42243"></path>
                <path d="M21.412766,49.9649424 L21.304766,49.8569424 C18.313766,46.8649424 18.313766,42.0139424 21.304766,39.0249424 L22.111766,38.2169424 L33.051766,49.1599424 L32.242766,49.9649424 C29.251766,52.9569424 24.403766,52.9569424 21.412766,49.9649424" id="Fill-195" fill="#B92931"></path>
                <path d="M32.874766,65.0559424 L32.801766,64.9849424 C30.879766,63.0589424 30.879766,59.9409424 32.801766,58.0149424 L51.284766,39.5349424 C54.061766,36.7559424 57.547766,34.7909424 61.362766,33.8489424 L62.960766,33.4559424 C63.678766,33.2769424 64.338766,33.9129424 64.184766,34.6379424 L63.889766,36.0529424 C63.030766,40.1449424 60.995766,43.9019424 58.036766,46.8599424 L39.840766,65.0559424 C37.918766,66.9799424 34.798766,66.9799424 32.874766,65.0559424" id="Fill-196" fill="#483B5F"></path>
                <path d="M30.737766,67.1929424 L30.666766,67.1219424 C29.283766,65.7389424 28.911766,63.7469424 29.514766,62.0179424 C28.116766,64.2019424 27.118766,66.6339424 26.581766,69.1969424 L26.283766,70.6089424 C26.130766,71.3359424 26.787766,71.9709424 27.506766,71.7909424 L29.107766,71.4009424 C31.613766,70.7809424 33.973766,69.7139424 36.085766,68.2689424 C34.305766,68.9969424 32.182766,68.6419424 30.737766,67.1929424" id="Fill-197" fill="#DC3A2A"></path>
                <path d="M6.62176598,38.8049424 L6.55176598,38.7339424 C4.62676598,36.8099424 4.62676598,33.6899424 6.55176598,31.7659424 L25.031766,13.2819424 C27.810766,10.5059424 31.294766,8.53894244 35.109766,7.59594244 L36.708766,7.20294244 C37.429766,7.02494244 38.086766,7.66094244 37.934766,8.38694244 L37.636766,9.79994244 C36.777766,13.8959424 34.743766,17.6499424 31.784766,20.6089424 L13.590766,38.8049424 C11.666766,40.7299424 8.54876598,40.7299424 6.62176598,38.8049424" id="Fill-198" fill="#483B5F"></path>
                <path d="M4.48576598,40.9399424 L4.41376598,40.8709424 C3.03176598,39.4889424 2.66076598,37.4959424 3.26176598,35.7649424 C1.86376598,37.9499424 0.867765982,40.3799424 0.328765982,42.9449424 L0.0307659819,44.3589424 C-0.119234018,45.0839424 0.534765982,45.7189424 1.25676598,45.5419424 L2.85676598,45.1469424 C5.36176598,44.5279424 7.72076598,43.4609424 9.83676598,42.0179424 C8.05376598,42.7439424 5.93176598,42.3869424 4.48576598,40.9399424" id="Fill-199" fill="#DC3A2A"></path>
                <path d="M42.784766,39.4229424 L57.842766,24.2669424 C60.817766,21.2889424 60.817766,16.4629424 57.842766,13.4839424 L57.732766,13.3779424 C54.754766,10.3999424 49.927766,10.3999424 46.950766,13.3779424 L31.360766,28.6919424 L21.949766,25.0439424 C17.898766,23.7629424 13.471766,24.8439424 10.467766,27.8489424 L10.339766,27.9749424 L43.630766,61.2679424 L43.680766,61.2169424 C46.726766,58.1719424 47.792766,53.6699424 46.434766,49.5849424 L42.784766,39.4229424" id="Fill-200" fill="#FFFFFF"></path>
                <path d="M54.635766,16.9729424 C52.918766,15.2549424 50.133766,15.2549424 48.415766,16.9729424 L54.635766,23.1909424 C56.351766,21.4729424 56.351766,18.6879424 54.635766,16.9729424" id="Fill-201" fill="#E15B2B"></path>
                <path d="M24.185766,36.1419424 L32.080766,28.2479424 L25.538766,26.1779424 L24.185766,36.1419424" id="Fill-202" fill="#E15B2B"></path>
                <path d="M35.123766,47.0849424 L43.018766,39.1899424 L45.089766,45.7309424 L35.123766,47.0849424" id="Fill-203" fill="#E15B2B"></path>
                <path d="M19.712766,63.6129424 C16.476766,66.8509424 0.421765982,71.1849424 0.421765982,71.1849424 C0.421765982,71.1849424 4.75876598,55.1299424 7.99076598,51.8939424 C11.230766,48.6579424 16.476766,48.6579424 19.712766,51.8939424 C22.948766,55.1299424 22.948766,60.3759424 19.712766,63.6129424" id="Fill-204" fill="#E05431"></path>
                <path d="M19.400766,56.7359424 C19.400766,59.2389424 17.369766,61.2679424 14.869766,61.2679424 C12.369766,61.2679424 10.339766,59.2389424 10.339766,56.7359424 C10.339766,54.2369424 12.369766,52.2089424 14.869766,52.2089424 C17.369766,52.2089424 19.400766,54.2369424 19.400766,56.7359424" id="Fill-205" fill="#F9C822"></path>
            </g>
            <path d="M357.72,309.278 L431.112,309.278 L431.112,319.585 L357.72,319.585 L357.72,309.278 Z" id="Fill-212" fill="#E1558B" sketch:type="MSShapeGroup"></path>
            <path d="M423.337,311.568 L429.064,311.568 L429.064,317.295 L423.337,317.295 L423.337,311.568 Z" id="Fill-213" fill="#FCF5AE" sketch:type="MSShapeGroup"></path>
            <path d="M423.337,325.77 L429.064,325.77 L429.064,331.498 L423.337,331.498 L423.337,325.77 Z" id="Fill-214" fill="#FFFCE3" sketch:type="MSShapeGroup"></path>
            <path d="M423.337,340.21 L429.064,340.21 L429.064,345.938 L423.337,345.938 L423.337,340.21 Z" id="Fill-215" fill="#FFFCE3" sketch:type="MSShapeGroup"></path>
            <path d="M375.575,309.285 L397.59,309.285 L397.59,278.002 L375.575,278.002 L375.575,309.285 Z" id="Fill-216" fill="#68685C" sketch:type="MSShapeGroup"></path>
            <path d="M397.59,309.285 L417.282,309.285 L417.282,278.002 L397.59,278.002 L397.59,309.285 Z" id="Fill-217" fill="#3D3635" sketch:type="MSShapeGroup"></path>
            <path d="M375.575,282.636 L417.282,282.636 L417.282,276.844 L375.575,276.844 L375.575,282.636 Z" id="Fill-218" fill="#2F292B" sketch:type="MSShapeGroup"></path>
            <path d="M429.33,280.876 C431.15,280.876 432.628,282.355 432.628,284.181 C432.628,285.998 431.15,287.476 429.33,287.476 C427.506,287.476 426.03,285.998 426.03,284.181 C426.03,282.355 427.506,280.876 429.33,280.876" id="Fill-219" fill="#F3C12A" sketch:type="MSShapeGroup"></path>
            <path d="M429.33,290.057 L424.928,298.859 L433.727,298.859 L429.33,290.057" id="Fill-220" fill="#F3C12A" sketch:type="MSShapeGroup"></path>
            <path d="M375.575,309.285 L397.59,309.285 L397.59,305.809 L375.575,305.809 L375.575,309.285 Z" id="Fill-221" fill="#3D3635" sketch:type="MSShapeGroup"></path>
            <path d="M397.59,309.285 L417.282,309.285 L417.282,305.809 L397.59,305.809 L397.59,309.285 Z" id="Fill-222" fill="#2F292B" sketch:type="MSShapeGroup"></path>
            <path d="M397.59,278.002 L430.029,278.002 L430.029,272.21 L397.59,272.21 L397.59,278.002 Z" id="Fill-223" fill="#3D3635" sketch:type="MSShapeGroup"></path>
            <path d="M361.673,278.002 L397.59,278.002 L397.59,272.21 L361.673,272.21 L361.673,278.002 Z" id="Fill-224" fill="#68685C" sketch:type="MSShapeGroup"></path>
            <path d="M451.939,316.244 L454.104,310.314 C454.986,307.888 453.739,305.205 451.313,304.322 L451.067,304.231 C448.642,303.348 447.395,300.664 448.277,298.24 L450.52,292.097 L452.039,297.911 C452.428,299.4 453.528,300.605 454.978,301.126 L455.058,301.156 C457.918,302.185 459.052,305.627 457.358,308.153 L451.939,316.244" id="Fill-225" fill="#FFFFFF" sketch:type="MSShapeGroup"></path>
            <path d="M465.477,341.829 C462.104,341.829 459.369,339.094 459.369,335.719 C459.369,332.346 462.104,329.612 465.477,329.612 C468.85,329.612 471.584,332.346 471.584,335.719 C471.584,339.094 468.85,341.829 465.477,341.829 L465.477,341.829 Z M465.477,326.676 C460.483,326.676 456.434,330.726 456.434,335.719 C456.434,340.714 460.483,344.764 465.477,344.764 C470.472,344.764 474.52,340.714 474.52,335.719 C474.52,330.726 470.472,326.676 465.477,326.676 L465.477,326.676 Z" id="Fill-226" fill="#397F41" sketch:type="MSShapeGroup"></path>
            <path d="M440.668,320.287 L465.477,320.287 L465.477,352.289 L440.668,352.289 L440.668,320.287 Z" id="Fill-227" fill="#A2B13A" sketch:type="MSShapeGroup"></path>
            <path d="M453.073,320.287 L465.477,320.287 L465.477,352.289 L453.073,352.289 L453.073,320.287 Z" id="Fill-228" fill="#397F41" sketch:type="MSShapeGroup"></path>
            <path d="M440.668,347.505 L465.477,347.505 L465.477,352.289 L440.668,352.289 L440.668,347.505 Z" id="Fill-229" fill="#397F41" sketch:type="MSShapeGroup"></path>
            <path d="M440.668,319.151 L465.477,319.151 L465.477,322.275 L440.668,322.275 L440.668,319.151 Z" id="Fill-230" fill="#A2B13A" sketch:type="MSShapeGroup"></path>
            <path d="M450.612,327.292 C450.612,329.294 448.992,330.914 446.99,330.914 C444.991,330.914 443.369,329.294 443.369,327.292 C443.369,325.293 444.991,323.671 446.99,323.671 C448.992,323.671 450.612,325.293 450.612,327.292" id="Fill-231" fill="#FAF49A" sketch:type="MSShapeGroup"></path>
            <path d="M318.709,282.659 L318.709,299.6 L322.26,296.049 L325.811,299.6 L325.811,282.659 L318.709,282.659" id="Fill-232" fill="#F6C948" sketch:type="MSShapeGroup"></path>
            <path d="M457.599,217.379 L457.538,217.379 C455.898,217.379 454.564,218.711 454.564,220.351 C454.564,218.711 453.237,217.379 451.593,217.379 L451.533,217.379 C449.894,217.379 448.562,218.711 448.562,220.351 C448.562,218.711 447.232,217.379 445.591,217.379 L445.53,217.379 C443.891,217.379 442.557,218.711 442.557,220.351 L442.557,209.512 C442.557,207.419 440.861,205.724 438.773,205.724 L438.693,205.724 C436.603,205.724 434.905,207.419 434.905,209.512 L434.905,231.121 L432.064,227.814 C430.833,226.385 428.676,226.221 427.244,227.453 L427.193,227.496 C425.762,228.728 425.598,230.885 426.827,232.317 L436.498,243.559 C436.849,243.969 437.279,244.26 437.743,244.46 C438.529,244.895 439.419,245.162 440.38,245.162 L454.627,245.162 C457.909,245.162 460.569,242.505 460.569,239.22 L460.569,220.351 C460.569,218.711 459.24,217.379 457.599,217.379" id="Fill-234" fill="#FFFFFF" sketch:type="MSShapeGroup"></path>
            <path d="M442.084,194.316 C442.084,196.828 440.047,198.861 437.537,198.861 C435.027,198.861 432.992,196.828 432.992,194.316 C432.992,191.806 435.027,189.771 437.537,189.771 C440.047,189.771 442.084,191.806 442.084,194.316" id="Fill-235" fill="#FFFFFF" sketch:type="MSShapeGroup"></path>
            <path d="M440.717,179.789 C440.717,181.542 439.292,182.965 437.537,182.965 C435.781,182.965 434.359,181.542 434.359,179.789 C434.359,178.034 435.781,176.611 437.537,176.611 C439.292,176.611 440.717,178.034 440.717,179.789" id="Fill-236" fill="#FFFFFF" sketch:type="MSShapeGroup"></path>
            <path d="M439.656,166.639 C439.656,167.809 438.706,168.757 437.537,168.757 C436.37,168.757 435.42,167.809 435.42,166.639 C435.42,165.47 436.37,164.521 437.537,164.521 C438.706,164.521 439.656,165.47 439.656,166.639" id="Fill-237" fill="#FFFFFF" sketch:type="MSShapeGroup"></path>
            <path d="M271.587,342.537 C271.587,344.42 270.062,345.945 268.179,345.945 L174.063,345.945 C172.18,345.945 170.654,344.42 170.654,342.537 L170.654,282.758 C170.654,280.874 172.18,279.35 174.063,279.35 L268.179,279.35 C270.062,279.35 271.587,280.874 271.587,282.758 L271.587,342.537" id="Fill-238" fill="#FFFFFF" sketch:type="MSShapeGroup"></path>
            <path d="M263.879,301.393 L271.851,301.393 L271.851,332.001 L263.879,332.001 L263.879,301.393 Z" id="Fill-239" fill="#A0A2A1" sketch:type="MSShapeGroup"></path>
            <path d="M176.773,285.81 L265.468,285.81 L265.468,341.163 L176.773,341.163 L176.773,285.81 Z" id="Fill-240" fill="#5DB992" sketch:type="MSShapeGroup"></path>
            <path d="M185.38,311.746 L212.989,311.746 L212.989,334.014 L185.38,334.014 L185.38,311.746 Z" id="Fill-241" fill="#525A53" sketch:type="MSShapeGroup"></path>
            <path d="M187.819,315.935 L210.686,315.935 L210.686,331.321 L187.819,331.321 L187.819,315.935 Z" id="Fill-242" fill="#359671" sketch:type="MSShapeGroup"></path>
            <path d="M189.881,317.965 L196.909,317.965 L196.909,329.289 L189.881,329.289 L189.881,317.965 Z" id="Fill-243" fill="#D1E5BC" sketch:type="MSShapeGroup"></path>
            <path d="M191.094,320.36 L195.696,320.36 L195.696,322.754 L191.094,322.754 L191.094,320.36 Z" id="Fill-244" fill="#159D8F" sketch:type="MSShapeGroup"></path>
            <path d="M203.455,291.698 L245.234,291.698 L245.234,325.691 L203.455,325.691 L203.455,291.698 Z" id="Fill-245" fill="#3A7C80" sketch:type="MSShapeGroup"></path>
            <path d="M206.589,296.717 L242.393,296.717 L242.393,322.878 L206.589,322.878 L206.589,296.717 Z" id="Fill-246" fill="#FFFFFF" sketch:type="MSShapeGroup"></path>
            <path d="M272.51,347.176 L269.778,353.191 L220.279,353.191 L272.51,347.176" id="Fill-247" fill="#98968B" sketch:type="MSShapeGroup"></path>
            <path d="M269.778,353.191 L171.029,353.191 L168.91,347.176 L272.51,347.176 L269.778,353.191" id="Fill-248" fill="#4D4644" sketch:type="MSShapeGroup"></path>
            <path d="M220.279,353.191 L269.778,353.191 L272.51,347.176 L220.279,347.176 L220.279,353.191" id="Fill-249" fill="#4D4644" sketch:type="MSShapeGroup"></path>
            <path d="M178.887,349.089 L186.406,349.089 L186.406,351.278 L178.887,351.278 L178.887,349.089 Z" id="Fill-250" fill="#312F2D" sketch:type="MSShapeGroup"></path>
            <path d="M199.184,349.089 L206.701,349.089 L206.701,351.278 L199.184,351.278 L199.184,349.089 Z" id="Fill-251" fill="#312F2D" sketch:type="MSShapeGroup"></path>
            <path d="M209.024,349.089 L216.542,349.089 L216.542,351.278 L209.024,351.278 L209.024,349.089 Z" id="Fill-252" fill="#312F2D" sketch:type="MSShapeGroup"></path>
            <path d="M180.63,339.933 L187.198,339.933 L187.198,341.935 L180.63,341.935 L180.63,339.933 Z" id="Fill-253" fill="#413A2F" sketch:type="MSShapeGroup"></path>
            <path d="M188.606,339.933 L195.174,339.933 L195.174,341.935 L188.606,341.935 L188.606,339.933 Z" id="Fill-254" fill="#413A2F" sketch:type="MSShapeGroup"></path>
            <path d="M196.698,339.933 L203.267,339.933 L203.267,341.935 L196.698,341.935 L196.698,339.933 Z" id="Fill-255" fill="#413A2F" sketch:type="MSShapeGroup"></path>
            <path d="M205.555,339.933 L212.122,339.933 L212.122,341.935 L205.555,341.935 L205.555,339.933 Z" id="Fill-256" fill="#413A2F" sketch:type="MSShapeGroup"></path>
            <path d="M213.529,339.933 L220.097,339.933 L220.097,341.935 L213.529,341.935 L213.529,339.933 Z" id="Fill-257" fill="#413A2F" sketch:type="MSShapeGroup"></path>
            <path d="M221.622,339.933 L228.19,339.933 L228.19,341.935 L221.622,341.935 L221.622,339.933 Z" id="Fill-258" fill="#413A2F" sketch:type="MSShapeGroup"></path>
            <path d="M230.183,339.933 L236.752,339.933 L236.752,341.935 L230.183,341.935 L230.183,339.933 Z" id="Fill-259" fill="#413A2F" sketch:type="MSShapeGroup"></path>
            <path d="M238.159,339.933 L244.728,339.933 L244.728,341.935 L238.159,341.935 L238.159,339.933 Z" id="Fill-260" fill="#413A2F" sketch:type="MSShapeGroup"></path>
            <path d="M246.252,339.933 L252.82,339.933 L252.82,341.935 L246.252,341.935 L246.252,339.933 Z" id="Fill-261" fill="#413A2F" sketch:type="MSShapeGroup"></path>
            <path d="M255.138,339.933 L261.706,339.933 L261.706,341.935 L255.138,341.935 L255.138,339.933 Z" id="Fill-262" fill="#413A2F" sketch:type="MSShapeGroup"></path>
            <path d="M189.666,313.947 C189.666,314.522 189.2,314.988 188.625,314.988 C188.05,314.988 187.584,314.522 187.584,313.947 C187.584,313.371 188.05,312.906 188.625,312.906 C189.2,312.906 189.666,313.371 189.666,313.947" id="Fill-263" fill="#E05431" sketch:type="MSShapeGroup"></path>
            <path d="M192.861,313.947 C192.861,314.522 192.395,314.988 191.82,314.988 C191.246,314.988 190.78,314.522 190.78,313.947 C190.78,313.371 191.246,312.906 191.82,312.906 C192.395,312.906 192.861,313.371 192.861,313.947" id="Fill-264" fill="#F1AA49" sketch:type="MSShapeGroup"></path>
            <path d="M196.152,313.947 C196.152,314.522 195.687,314.988 195.111,314.988 C194.537,314.988 194.071,314.522 194.071,313.947 C194.071,313.371 194.537,312.906 195.111,312.906 C195.687,312.906 196.152,313.371 196.152,313.947" id="Fill-265" fill="#85BF43" sketch:type="MSShapeGroup"></path>
            <path d="M207.479,294.232 C207.479,294.806 207.013,295.272 206.438,295.272 C205.863,295.272 205.397,294.806 205.397,294.232 C205.397,293.657 205.863,293.191 206.438,293.191 C207.013,293.191 207.479,293.657 207.479,294.232" id="Fill-266" fill="#E05431" sketch:type="MSShapeGroup"></path>
            <path d="M210.675,294.232 C210.675,294.806 210.208,295.272 209.634,295.272 C209.059,295.272 208.593,294.806 208.593,294.232 C208.593,293.657 209.059,293.191 209.634,293.191 C210.208,293.191 210.675,293.657 210.675,294.232" id="Fill-267" fill="#F1AA49" sketch:type="MSShapeGroup"></path>
            <path d="M213.966,294.232 C213.966,294.806 213.5,295.272 212.925,295.272 C212.35,295.272 211.884,294.806 211.884,294.232 C211.884,293.657 212.35,293.191 212.925,293.191 C213.5,293.191 213.966,293.657 213.966,294.232" id="Fill-268" fill="#85BF43" sketch:type="MSShapeGroup"></path>
            <path d="M168.91,342.873 L272.51,342.873 L272.51,347.176 L168.91,347.176 L168.91,342.873 Z" id="Fill-269" fill="#878985" sketch:type="MSShapeGroup"></path>
            <path d="M168.91,341.163 L272.51,341.163 L272.51,344.586 L168.91,344.586 L168.91,341.163 Z" id="Fill-270" fill="#FFFFFF" sketch:type="MSShapeGroup"></path>
            <path d="M226.412,315.305 C222.229,315.305 218.837,318.294 218.837,321.98 L233.987,321.98 C233.987,318.294 230.595,315.305 226.412,315.305" id="Fill-271" fill="#E05431" sketch:type="MSShapeGroup"></path>
            <path d="M224.637,312.204 L228.186,312.204 L228.186,318.267 L224.637,318.267 L224.637,312.204 Z" id="Fill-272" fill="#ECAE5D" sketch:type="MSShapeGroup"></path>
            <path d="M232.82,306.499 C232.82,310.038 229.95,312.906 226.411,312.906 C222.872,312.906 220.004,310.038 220.004,306.499 C220.004,302.959 222.872,300.09 226.411,300.09 C229.95,300.09 232.82,302.959 232.82,306.499" id="Fill-273" fill="#6D532F" sketch:type="MSShapeGroup"></path>
            <path d="M224.637,315.578 C225.184,315.809 225.783,315.935 226.412,315.935 C227.041,315.935 227.64,315.809 228.186,315.579 L228.186,312.204 L224.637,312.204 L224.637,315.578" id="Fill-274" fill="#AB8146" sketch:type="MSShapeGroup"></path>
            <path d="M222.506,304.724 L222.506,311.115 C222.506,313.272 224.255,315.021 226.412,315.021 C228.569,315.021 230.317,313.272 230.317,311.115 L230.317,304.724 L222.506,304.724" id="Fill-275" fill="#ECAE5D" sketch:type="MSShapeGroup"></path>
            <path d="M229.448,282.746 C229.448,283.531 228.812,284.165 228.027,284.165 C227.243,284.165 226.607,283.531 226.607,282.746 C226.607,281.961 227.243,281.325 228.027,281.325 C228.812,281.325 229.448,281.961 229.448,282.746" id="Fill-276" fill="#C2B7AD" sketch:type="MSShapeGroup"></path>
            <path d="M189.666,279.35 L222.54,279.35 L222.54,286.112 L189.666,286.112 L189.666,279.35 Z" id="Fill-277" fill="#A0A2A1" sketch:type="MSShapeGroup"></path>
            <path d="M84.743,352.223 L505.881,352.223 L505.881,369.266 L84.743,369.266 L84.743,352.223 Z" id="Fill-278" fill="#F4F4F3" sketch:type="MSShapeGroup"></path>
            <path d="M84.743,358.181 L505.881,358.181 L505.881,369.266 L84.743,369.266 L84.743,358.181 Z" id="Fill-279" fill="#5A4E65" sketch:type="MSShapeGroup"></path>
            <path d="M224.143,271.645 C224.143,264.414 215.921,258.556 205.777,258.556 C195.633,258.556 187.411,264.414 187.411,271.645 C187.411,278.872 195.633,284.734 205.777,284.734 C207.684,284.734 210.879,284.239 212.607,283.852 L219.895,293.939 L219.895,280.011 C222.546,277.743 224.143,274.828 224.143,271.645" id="Fill-280" fill="#FFFFFF" sketch:type="MSShapeGroup"></path>
            <path d="M194.793,265.771 L216.76,265.771 L216.76,268.272 L194.793,268.272 L194.793,265.771 Z" id="Fill-281" fill="#87C5BA" sketch:type="MSShapeGroup"></path>
            <path d="M194.793,270.484 L216.76,270.484 L216.76,272.985 L194.793,272.985 L194.793,270.484 Z" id="Fill-282" fill="#87C5BA" sketch:type="MSShapeGroup"></path>
            <path d="M194.793,275.198 L216.76,275.198 L216.76,277.699 L194.793,277.699 L194.793,275.198 Z" id="Fill-283" fill="#87C5BA" sketch:type="MSShapeGroup"></path>
            <path d="M288.621,316.27 C288.621,322.775 281.113,328.047 271.851,328.047 C262.587,328.047 255.08,322.775 255.08,316.27 C255.08,309.766 262.587,304.491 271.851,304.491 C281.113,304.491 288.621,309.766 288.621,316.27" id="Fill-284" fill="#FFFFFF" sketch:type="MSShapeGroup"></path>
            <path d="M257.306,320.504 L246.348,316.031 L257.306,312.649 L257.306,320.504" id="Fill-285" fill="#FFFFFF" sketch:type="MSShapeGroup"></path>
            <path d="M262.551,312.649 L281.688,312.649 L281.688,315.021 L262.551,315.021 L262.551,312.649 Z" id="Fill-286" fill="#F1AA49" sketch:type="MSShapeGroup"></path>
            <path d="M262.551,317.588 L281.688,317.588 L281.688,319.963 L262.551,319.963 L262.551,317.588 Z" id="Fill-287" fill="#F1AA49" sketch:type="MSShapeGroup"></path>
            <path d="M408.89,82.198 C408.89,69.879 398.903,59.891 386.583,59.891 C374.26,59.891 364.273,69.879 364.273,82.198 C364.273,88.476 369.832,96.392 377.943,107.51 L394.918,107.51 C402.432,96.844 408.89,88.476 408.89,82.198" id="Fill-288" fill="#816CA3" sketch:type="MSShapeGroup"></path>
            <path d="M386.438,113.859 L380.24,113.859 L381.574,118.374 L382.903,122.891 L390.315,122.891 L391.469,118.374 L392.628,113.859 L386.438,113.859" id="Fill-289" fill="#895830" sketch:type="MSShapeGroup"></path>
            <path d="M369.612,82.52 C369.612,87.456 373.982,93.678 380.36,102.419 L387.15,102.419 L387.15,64.982 C377.464,64.982 369.612,72.833 369.612,82.52" id="Fill-290" fill="#E893B5" sketch:type="MSShapeGroup"></path>
            <path d="M383.261,77.27 C383.261,79.46 381.483,81.234 379.295,81.234 C377.106,81.234 375.331,79.46 375.331,77.27 C375.331,75.081 377.106,73.307 379.295,73.307 C381.483,73.307 383.261,75.081 383.261,77.27" id="Fill-291" fill="#FFFFFF" sketch:type="MSShapeGroup"></path>
            <path d="M202.327,73.831 C202.327,77.829 199.086,81.072 195.087,81.072 C191.088,81.072 187.846,77.829 187.846,73.831 C187.846,69.833 191.088,66.591 195.087,66.591 C199.086,66.591 202.327,69.833 202.327,73.831" id="Fill-292" fill="#48657E" sketch:type="MSShapeGroup"></path>
            <path d="M187.906,52.31 L202.327,52.31 L202.327,73.831 L187.906,73.831 L187.906,52.31 Z" id="Fill-293" fill="#48657E" sketch:type="MSShapeGroup"></path>
            <path d="M186.655,66.078 L203.578,66.078 L203.578,68.202 L186.655,68.202 L186.655,66.078 Z" id="Fill-294" fill="#E7F4F3" sketch:type="MSShapeGroup"></path>
            <path d="M186.655,70.477 L203.578,70.477 L203.578,72.6 L186.655,72.6 L186.655,70.477 Z" id="Fill-295" fill="#E7F4F3" sketch:type="MSShapeGroup"></path>
            <path d="M211.484,48.097 C211.484,56.95 204.31,64.123 195.46,64.123 C186.609,64.123 179.433,56.95 179.433,48.097 C179.433,39.246 186.609,32.074 195.46,32.074 C204.31,32.074 211.484,39.246 211.484,48.097" id="Fill-296" fill="#FFF2D6" sketch:type="MSShapeGroup"></path>
            <path d="M208.486,48.097 C208.486,55.295 202.654,61.126 195.46,61.126 C188.264,61.126 182.431,55.295 182.431,48.097 C182.431,40.902 188.264,35.07 195.46,35.07 C202.654,35.07 208.486,40.902 208.486,48.097" id="Fill-297" fill="#F9C822" sketch:type="MSShapeGroup"></path>
            <path d="M195.46,52.039 C191.11,52.039 187.222,53.305 184.625,55.295 C186.808,59.012 190.836,61.515 195.46,61.515 C200.083,61.515 204.112,59.012 206.294,55.295 C203.697,53.305 199.81,52.039 195.46,52.039" id="Fill-298" fill="#EC912D" sketch:type="MSShapeGroup"></path>
            <path d="M193.396,41.734 L196.838,41.734 L196.838,52.779 L193.396,52.779 L193.396,41.734 Z" id="Fill-299" fill="#A3522D" sketch:type="MSShapeGroup"></path>
            <path d="M197.357,48.098 L192.816,48.098 C191.894,48.098 191.146,47.35 191.146,46.427 L191.146,46.394 C191.146,45.471 191.894,44.722 192.816,44.722 L197.357,44.722 C198.279,44.722 199.028,45.471 199.028,46.394 L199.028,46.427 C199.028,47.35 198.279,48.098 197.357,48.098" id="Fill-300" fill="#E25F29" sketch:type="MSShapeGroup"></path>
            <path d="M197.386,42.83 L192.845,42.83 C191.922,42.83 191.175,42.082 191.175,41.161 L191.175,41.127 C191.175,40.202 191.922,39.454 192.845,39.454 L197.386,39.454 C198.31,39.454 199.057,40.202 199.057,41.127 L199.057,41.161 C199.057,42.082 198.31,42.83 197.386,42.83" id="Fill-301" fill="#E25F29" sketch:type="MSShapeGroup"></path>
            <path d="M198.875,54.299 C198.875,56.376 197.193,58.058 195.117,58.058 C193.04,58.058 191.356,56.376 191.356,54.299 C191.356,52.224 193.04,50.538 195.117,50.538 C197.193,50.538 198.875,52.224 198.875,54.299" id="Fill-302" fill="#E25F29" sketch:type="MSShapeGroup"></path>
            <path d="M197.041,81.072 C197.041,82.149 196.166,83.026 195.087,83.026 C194.009,83.026 193.132,82.149 193.132,81.072 C193.132,79.992 194.009,79.117 195.087,79.117 C196.166,79.117 197.041,79.992 197.041,81.072" id="Fill-303" fill="#48657E" sketch:type="MSShapeGroup"></path>
            <path d="M193.587,18.93 L197.331,18.93 L197.331,28.34 L193.587,28.34 L193.587,18.93 Z" id="Fill-304" fill="#FFF2D6" sketch:type="MSShapeGroup"></path>
            <path d="M182.431,31.687 L179.784,34.335 L173.131,27.681 L175.778,25.035 L182.431,31.687" id="Fill-305" fill="#FFF2D6" sketch:type="MSShapeGroup"></path>
            <path d="M210.101,31.687 L212.747,34.335 L219.4,27.681 L216.754,25.035 L210.101,31.687" id="Fill-306" fill="#FFF2D6" sketch:type="MSShapeGroup"></path>
            <path d="M203.625,90.382 C205.264,90.382 206.802,90.8 208.146,91.532 C209.956,86.14 215.04,82.249 221.042,82.249 C221.879,82.249 222.695,82.336 223.49,82.482 C224.158,74.233 231.052,67.743 239.473,67.743 C248.336,67.743 255.521,74.928 255.521,83.791 C255.521,84.266 255.491,84.733 255.45,85.196 C256.604,84.845 257.832,84.651 259.104,84.651 C265.987,84.651 271.568,90.231 271.568,97.117 C271.568,104.004 265.987,109.583 259.104,109.583 C252.555,109.583 227.491,109.476 221.042,109.476 C217.219,109.476 206.787,109.295 203.625,109.295 C198.402,109.295 194.168,105.062 194.168,99.841 C194.168,94.617 198.402,90.382 203.625,90.382" id="Fill-307" fill="#FFFFFF" sketch:type="MSShapeGroup"></path>
            <path d="M330.158,150.469 L356.987,150.469 L356.987,170.743 L330.158,170.743 L330.158,150.469 Z" id="Fill-308" fill="#5685B8" sketch:type="MSShapeGroup"></path>
            <path d="M294.1,111.282 C294.1,99.67 307.762,90.256 324.614,90.256 C341.467,90.256 355.128,99.67 355.128,111.282 C355.128,122.894 341.467,132.308 324.614,132.308 C320.489,132.308 316.559,131.741 312.969,130.718 L300.907,142.782 L300.907,124.516 C296.653,120.903 294.1,116.298 294.1,111.282" id="Fill-309" fill="#FEFACF" sketch:type="MSShapeGroup"></path>
            <path d="M321.994,108.484 L309.233,108.484 L309.233,99.002 L321.994,95.738 L321.994,108.484" id="Fill-310" fill="#714735" sketch:type="MSShapeGroup"></path>
            <path d="M323.962,127.199 C323.967,127.087 323.979,126.979 323.979,126.866 C323.979,122.292 320.271,118.583 315.698,118.583 C311.124,118.583 307.416,122.292 307.416,126.866 C307.416,126.979 307.43,127.087 307.434,127.199 L323.962,127.199" id="Fill-311" fill="#74AD42" sketch:type="MSShapeGroup"></path>
            <path d="M313.17,113.025 L318.226,113.025 L318.226,121.251 L313.17,121.251 L313.17,113.025 Z" id="Fill-312" fill="#EB926A" sketch:type="MSShapeGroup"></path>
            <path d="M313.17,117.523 C313.911,117.889 314.732,118.111 315.613,118.111 C316.565,118.111 317.444,117.851 318.226,117.433 L318.226,113.469 L313.17,113.469 L313.17,117.523" id="Fill-313" fill="#B36E4F" sketch:type="MSShapeGroup"></path>
            <path d="M310.062,103.638 L310.062,110.797 C310.059,110.876 310.039,110.952 310.039,111.034 C310.039,114.114 312.535,116.611 315.613,116.611 C318.693,116.611 321.19,114.114 321.19,111.034 L321.19,103.638 L310.062,103.638" id="Fill-314" fill="#EB926A" sketch:type="MSShapeGroup"></path>
            <path d="M312.282,111.567 C312.425,113.291 313.854,114.651 315.613,114.651 C317.376,114.651 318.805,113.291 318.946,111.567 L312.282,111.567" id="Fill-315" fill="#FFFFFF" sketch:type="MSShapeGroup"></path>
            <path d="M327.311,106.307 L344.208,106.307 L344.208,108.805 L327.311,108.805 L327.311,106.307 Z" id="Fill-316" fill="#F9CA6D" sketch:type="MSShapeGroup"></path>
            <path d="M327.311,112.006 L344.208,112.006 L344.208,114.502 L327.311,114.502 L327.311,112.006 Z" id="Fill-317" fill="#F9CA6D" sketch:type="MSShapeGroup"></path>
            <path d="M327.311,117.705 L344.208,117.705 L344.208,120.202 L327.311,120.202 L327.311,117.705 Z" id="Fill-318" fill="#F9CA6D" sketch:type="MSShapeGroup"></path>
            <path d="M182.043,146.94 C182.043,132.804 165.413,121.344 144.898,121.344 C124.384,121.344 107.754,132.804 107.754,146.94 C107.754,161.076 124.384,172.535 144.898,172.535 C149.919,172.535 154.705,171.844 159.073,170.6 L173.755,185.284 L173.755,163.049 C178.935,158.651 182.043,153.046 182.043,146.94" id="Fill-319" fill="#6285C5" sketch:type="MSShapeGroup"></path>
            <path d="M164.063,139.883 C164.063,144.033 160.697,147.398 156.547,147.398 C152.397,147.398 149.032,144.033 149.032,139.883 C149.032,135.733 152.397,132.367 156.547,132.367 C160.697,132.367 164.063,135.733 164.063,139.883" id="Fill-320" fill="#53412B" sketch:type="MSShapeGroup"></path>
            <path d="M149.032,139.883 L164.063,139.883 L164.063,160.029 L149.032,160.029 L149.032,139.883 Z" id="Fill-321" fill="#53412B" sketch:type="MSShapeGroup"></path>
            <path d="M165.276,163.397 C165.281,163.281 165.295,163.167 165.295,163.049 C165.295,158.266 161.418,154.39 156.636,154.39 C151.851,154.39 147.977,158.266 147.977,163.049 C147.977,163.167 147.989,163.281 147.993,163.397 L165.276,163.397" id="Fill-322" fill="#E25F80" sketch:type="MSShapeGroup"></path>
            <path d="M153.99,148.577 L159.279,148.577 L159.279,157.177 L153.99,157.177 L153.99,148.577 Z" id="Fill-323" fill="#EABA92" sketch:type="MSShapeGroup"></path>
            <path d="M153.99,153.28 C154.766,153.662 155.626,153.895 156.547,153.895 C157.541,153.895 158.459,153.623 159.279,153.186 L159.279,149.042 L153.99,149.042 L153.99,153.28" id="Fill-324" fill="#B48A51" sketch:type="MSShapeGroup"></path>
            <path d="M150.74,138.763 L150.74,146.248 C150.738,146.331 150.717,146.41 150.717,146.495 C150.717,149.716 153.327,152.326 156.547,152.326 C159.767,152.326 162.377,149.716 162.377,146.495 L162.377,138.763 L150.74,138.763" id="Fill-325" fill="#EABA92" sketch:type="MSShapeGroup"></path>
            <path d="M119.493,141.69 L141.175,141.69 L141.175,144.264 L119.493,144.264 L119.493,141.69 Z" id="Fill-326" fill="#95ACCE" sketch:type="MSShapeGroup"></path>
            <path d="M119.493,147.755 L141.175,147.755 L141.175,150.329 L119.493,150.329 L119.493,147.755 Z" id="Fill-327" fill="#95ACCE" sketch:type="MSShapeGroup"></path>
            <path d="M119.493,153.103 L141.175,153.103 L141.175,155.677 L119.493,155.677 L119.493,153.103 Z" id="Fill-328" fill="#95ACCE" sketch:type="MSShapeGroup"></path>
        </g>
    </g>
</svg>