<?xml version="1.0" encoding="UTF-8" standalone="no"?>
<svg width="72px" height="72px" viewBox="0 0 72 72" version="1.1" xmlns="http://www.w3.org/2000/svg" xmlns:xlink="http://www.w3.org/1999/xlink" xmlns:sketch="http://www.bohemiancoding.com/sketch/ns">
    <!-- Generator: Sketch 3.3.1 (12002) - http://www.bohemiancoding.com/sketch -->
    <title>rocket</title>
    <desc>Created with Sketch.</desc>
    <defs></defs>
    <g id="Page-3" stroke="none" stroke-width="1" fill="none" fill-rule="evenodd" sketch:type="MSPage">
        <g id="Desktop" sketch:type="MSArtboardGroup" transform="translate(-253.000000, -516.000000)">
            <g id="rocket" sketch:type="MSLayerGroup" transform="translate(253.627000, 515.965000)">
                <path d="M30.258766,41.2079424 L30.058766,41.0089424 C24.615766,35.5669424 22.134766,29.2289424 24.512766,26.8499424 L47.358766,4.00194244 C50.793766,0.567942441 56.310766,-0.654057559 63.310766,0.469942441 L66.246766,0.941942441 C67.568766,1.15194244 69.411766,2.96694244 69.677766,4.31694244 L70.198766,6.95794244 C71.710766,14.5949424 70.567766,20.6089424 66.910766,24.2649424 L44.421766,46.7559424 C42.042766,49.1339424 35.699766,46.6509424 30.258766,41.2079424" id="Fill-194" fill="#C42243" sketch:type="MSShapeGroup"></path>
                <path d="M21.412766,49.9649424 L21.304766,49.8569424 C18.313766,46.8649424 18.313766,42.0139424 21.304766,39.0249424 L22.111766,38.2169424 L33.051766,49.1599424 L32.242766,49.9649424 C29.251766,52.9569424 24.403766,52.9569424 21.412766,49.9649424" id="Fill-195" fill="#B92931" sketch:type="MSShapeGroup"></path>
                <path d="M32.874766,65.0559424 L32.801766,64.9849424 C30.879766,63.0589424 30.879766,59.9409424 32.801766,58.0149424 L51.284766,39.5349424 C54.061766,36.7559424 57.547766,34.7909424 61.362766,33.8489424 L62.960766,33.4559424 C63.678766,33.2769424 64.338766,33.9129424 64.184766,34.6379424 L63.889766,36.0529424 C63.030766,40.1449424 60.995766,43.9019424 58.036766,46.8599424 L39.840766,65.0559424 C37.918766,66.9799424 34.798766,66.9799424 32.874766,65.0559424" id="Fill-196" fill="#483B5F" sketch:type="MSShapeGroup"></path>
                <path d="M30.737766,67.1929424 L30.666766,67.1219424 C29.283766,65.7389424 28.911766,63.7469424 29.514766,62.0179424 C28.116766,64.2019424 27.118766,66.6339424 26.581766,69.1969424 L26.283766,70.6089424 C26.130766,71.3359424 26.787766,71.9709424 27.506766,71.7909424 L29.107766,71.4009424 C31.613766,70.7809424 33.973766,69.7139424 36.085766,68.2689424 C34.305766,68.9969424 32.182766,68.6419424 30.737766,67.1929424" id="Fill-197" fill="#DC3A2A" sketch:type="MSShapeGroup"></path>
                <path d="M6.62176598,38.8049424 L6.55176598,38.7339424 C4.62676598,36.8099424 4.62676598,33.6899424 6.55176598,31.7659424 L25.031766,13.2819424 C27.810766,10.5059424 31.294766,8.53894244 35.109766,7.59594244 L36.708766,7.20294244 C37.429766,7.02494244 38.086766,7.66094244 37.934766,8.38694244 L37.636766,9.79994244 C36.777766,13.8959424 34.743766,17.6499424 31.784766,20.6089424 L13.590766,38.8049424 C11.666766,40.7299424 8.54876598,40.7299424 6.62176598,38.8049424" id="Fill-198" fill="#483B5F" sketch:type="MSShapeGroup"></path>
                <path d="M4.48576598,40.9399424 L4.41376598,40.8709424 C3.03176598,39.4889424 2.66076598,37.4959424 3.26176598,35.7649424 C1.86376598,37.9499424 0.867765982,40.3799424 0.328765982,42.9449424 L0.0307659819,44.3589424 C-0.119234018,45.0839424 0.534765982,45.7189424 1.25676598,45.5419424 L2.85676598,45.1469424 C5.36176598,44.5279424 7.72076598,43.4609424 9.83676598,42.0179424 C8.05376598,42.7439424 5.93176598,42.3869424 4.48576598,40.9399424" id="Fill-199" fill="#DC3A2A" sketch:type="MSShapeGroup"></path>
                <path d="M42.784766,39.4229424 L57.842766,24.2669424 C60.817766,21.2889424 60.817766,16.4629424 57.842766,13.4839424 L57.732766,13.3779424 C54.754766,10.3999424 49.927766,10.3999424 46.950766,13.3779424 L31.360766,28.6919424 L21.949766,25.0439424 C17.898766,23.7629424 13.471766,24.8439424 10.467766,27.8489424 L10.339766,27.9749424 L43.630766,61.2679424 L43.680766,61.2169424 C46.726766,58.1719424 47.792766,53.6699424 46.434766,49.5849424 L42.784766,39.4229424" id="Fill-200" fill="#F3F3F3" sketch:type="MSShapeGroup"></path>
                <path d="M54.635766,16.9729424 C52.918766,15.2549424 50.133766,15.2549424 48.415766,16.9729424 L54.635766,23.1909424 C56.351766,21.4729424 56.351766,18.6879424 54.635766,16.9729424" id="Fill-201" fill="#E15B2B" sketch:type="MSShapeGroup"></path>
                <path d="M24.185766,36.1419424 L32.080766,28.2479424 L25.538766,26.1779424 L24.185766,36.1419424" id="Fill-202" fill="#E15B2B" sketch:type="MSShapeGroup"></path>
                <path d="M35.123766,47.0849424 L43.018766,39.1899424 L45.089766,45.7309424 L35.123766,47.0849424" id="Fill-203" fill="#E15B2B" sketch:type="MSShapeGroup"></path>
                <path d="M19.712766,63.6129424 C16.476766,66.8509424 0.421765982,71.1849424 0.421765982,71.1849424 C0.421765982,71.1849424 4.75876598,55.1299424 7.99076598,51.8939424 C11.230766,48.6579424 16.476766,48.6579424 19.712766,51.8939424 C22.948766,55.1299424 22.948766,60.3759424 19.712766,63.6129424" id="Fill-204" fill="#E05431" sketch:type="MSShapeGroup"></path>
                <path d="M19.400766,56.7359424 C19.400766,59.2389424 17.369766,61.2679424 14.869766,61.2679424 C12.369766,61.2679424 10.339766,59.2389424 10.339766,56.7359424 C10.339766,54.2369424 12.369766,52.2089424 14.869766,52.2089424 C17.369766,52.2089424 19.400766,54.2369424 19.400766,56.7359424" id="Fill-205" fill="#F9C822" sketch:type="MSShapeGroup"></path>
            </g>
        </g>
    </g>
</svg>